<?xml version="1.0" encoding="UTF-8" standalone="no"?>
<!-- Created with Inkscape (http://www.inkscape.org/) -->

<svg
   xmlns:dc="http://purl.org/dc/elements/1.1/"
   xmlns:cc="http://creativecommons.org/ns#"
   xmlns:rdf="http://www.w3.org/1999/02/22-rdf-syntax-ns#"
   xmlns:svg="http://www.w3.org/2000/svg"
   xmlns="http://www.w3.org/2000/svg"
   xmlns:sodipodi="http://sodipodi.sourceforge.net/DTD/sodipodi-0.dtd"
   xmlns:inkscape="http://www.inkscape.org/namespaces/inkscape"
   width="1052.3622"
   height="744.09448"
   id="svg2"
   version="1.1"
   inkscape:version="0.48.4 r9939"
   sodipodi:docname="cd.svg">
  <defs
     id="defs4" />
  <sodipodi:namedview
     id="base"
     pagecolor="#000000"
     bordercolor="#666666"
     borderopacity="1.0"
     inkscape:pageopacity="0.45882353"
     inkscape:pageshadow="2"
     inkscape:zoom="0.7"
     inkscape:cx="300.56202"
     inkscape:cy="337.48771"
     inkscape:document-units="px"
     inkscape:current-layer="layer1"
     showgrid="false"
     inkscape:window-width="1440"
     inkscape:window-height="839"
     inkscape:window-x="0"
     inkscape:window-y="27"
     inkscape:window-maximized="1" />
  <metadata
     id="metadata7">
    <rdf:RDF>
      <cc:Work
         rdf:about="">
        <dc:format>image/svg+xml</dc:format>
        <dc:type
           rdf:resource="http://purl.org/dc/dcmitype/StillImage" />
        <dc:title />
      </cc:Work>
    </rdf:RDF>
  </metadata>
  <g
     inkscape:label="Layer 1"
     inkscape:groupmode="layer"
     id="layer1"
     transform="translate(0,-308.2677)">
    <g
       id="g4000"
       transform="translate(-152.28571,-91.428571)">
      <path
         inkscape:connector-curvature="0"
         id="path2987"
         d="m 178.07544,612.31451 c 0,-8.01431 0,-16.02863 0,-24.04293 0,-5.80347 0,-11.60694 0,-17.4104 0,-1.38178 0,-2.76356 0,-4.14534 0,-1.10542 -0.21679,-2.23231 0,-3.31626 0.0767,-0.38324 0.73428,-0.44992 0.82907,-0.82907 0.18458,-0.73834 0,-4.70249 0,-5.80346 0,-0.27636 0,-0.55272 0,-0.82908 0,-0.27635 -0.24718,-0.70547 0,-0.82906 0.49436,-0.24718 1.10542,0 1.65813,0 1.84272,0 4.03893,0.25208 5.80347,0 0.86513,-0.12359 1.61863,-0.73256 2.4872,-0.82907 1.64799,-0.18311 3.31627,0 4.9744,0 1.38178,0 2.76355,0 4.14533,0 5.80347,0 11.60694,0 17.4104,0 4.42169,0 8.84338,0 13.26507,0 2.21084,0 4.42169,0 6.63253,0 0.55271,0 1.11616,0.1084 1.65813,0 5.89316,-1.17863 -1.36844,-0.82906 5.80347,-0.82906 3.86898,0 7.73796,0 11.60693,0 1.38178,0 2.76356,0 4.14533,0 0.55271,0 1.11616,0.10839 1.65814,0 0.85694,-0.17139 1.62518,-0.6854 2.4872,-0.82907 1.36298,-0.22716 2.76355,0 4.14533,0 2.21085,0 4.42169,0 6.63254,0 4.69804,0 9.39608,0 14.09413,0 0.82906,0 1.65813,0 2.4872,0 0.27635,0 0.63365,-0.19541 0.82906,0 0.39083,0.39082 -0.17478,1.13378 0,1.65813 2.34862,4.69724 -0.30897,-1.2359 0.82907,3.31627 0.14988,0.5995 0.67919,1.05864 0.82907,1.65813 0.16303,0.65216 0,4.11224 0,4.9744 0,0.27636 -0.067,0.56097 0,0.82907 0.21195,0.84782 0.68539,1.62518 0.82906,2.4872 0.1363,0.81779 0,1.65813 0,2.4872 0,2.21084 0,4.42169 0,6.63253 0,4.69805 0,9.39609 0,14.09413 0,4.69805 0,9.39609 0,14.09414 0,1.10542 0,2.21084 0,3.31626 0,0.27636 0.27636,0.82907 0,0.82907 -0.27635,0 0.27636,-0.82907 0,-0.82907 -0.39082,0 -0.4795,0.65429 -0.82906,0.82907 -0.24718,0.12359 -0.55271,0 -0.82907,0 -0.27635,0 -0.55271,0 -0.82907,0 -1.38178,0 -2.76355,0 -4.14533,0 -2.4872,0 -4.9744,0 -7.4616,0 -0.82906,0 -1.65814,0 -2.4872,0 -0.55271,0 -1.11615,0.10839 -1.65813,0 -0.85694,-0.17139 -1.62518,-0.6854 -2.4872,-0.82907 -0.81779,-0.13629 -1.65814,0 -2.4872,0 -2.4872,0 -4.9744,0 -7.4616,0 -0.82907,0 -1.68289,0.20108 -2.4872,0 -0.37916,-0.0948 -0.4583,-0.70547 -0.82907,-0.82906 -0.52434,-0.17479 -1.10542,0 -1.65813,0 -0.55271,0 -1.10542,0 -1.65813,0 -1.65814,0 -3.31627,0 -4.9744,0 -3.31627,0 -6.63254,0 -9.9488,0 -0.63292,0 -4.45205,-0.17412 -4.97441,0 -0.58623,0.19541 -1.05863,0.67919 -1.65813,0.82906 -0.63047,0.15762 -3.45108,0 -4.14533,0 -3.59262,0 -7.18524,0 -10.77787,0 -0.6071,0 -4.15089,-0.1647 -4.97439,0 -0.85695,0.17139 -1.63026,0.65768 -2.48721,0.82907 -0.54197,0.10839 -1.10542,0 -1.65813,0 -1.65813,0 -3.31627,0 -4.9744,0 -1.10542,0 -2.21084,0 -3.31627,0 -0.55271,0 -1.10542,0 -1.65813,0 -0.27635,0 -0.58188,-0.12359 -0.82906,0 -0.34957,0.17478 -0.4795,0.65429 -0.82907,0.82907 -0.24718,0.12359 -0.55271,0 -0.82907,0 -0.27635,0 -0.55271,0 -0.82906,0 -2.21085,0 -4.42169,0 -6.63254,0 -0.57249,0 -3.0642,-0.12603 -3.31626,0 -0.34957,0.17478 -0.4795,0.65428 -0.82907,0.82906 -0.32872,0.16436 -2.31771,-0.16949 -2.4872,0 -0.19541,0.19542 0.19541,0.63366 0,0.82907 -0.0662,0.0662 -1.32679,-0.0553 -1.65813,0 -1.38997,0.23166 -2.76356,0.55271 -4.14534,0.82907 z"
         style="fill:none;stroke:#ffffff;stroke-width:1.45086658;stroke-linecap:butt;stroke-linejoin:miter;stroke-miterlimit:4;stroke-opacity:1;stroke-dasharray:none" />
      <path
         inkscape:connector-curvature="0"
         id="path2987-2"
         d="m 318.58899,498.78286 c 0,-8.01431 0,-16.02862 0,-24.04293 0,-5.80347 0,-11.60693 0,-17.4104 0,-1.38177 0,-2.76356 0,-4.14533 0,-1.10542 -0.21679,-2.23231 0,-3.31627 0.0766,-0.38323 0.73428,-0.44991 0.82907,-0.82906 0.18458,-0.73834 0,-4.70249 0,-5.80347 0,-0.27636 0,-0.55271 0,-0.82907 0,-0.27636 -0.24718,-0.70548 0,-0.82907 0.49436,-0.24718 1.10542,0 1.65813,0 1.84272,0 4.03893,0.25208 5.80347,0 0.86513,-0.12359 1.61863,-0.73256 2.4872,-0.82906 1.64799,-0.18311 3.31627,0 4.9744,0 1.38178,0 2.76355,0 4.14533,0 5.80347,0 11.60694,0 17.4104,0 4.42169,0 8.84338,0 13.26507,0 2.21084,0 4.42169,0 6.63253,0 0.55271,0 1.11616,0.1084 1.65813,0 5.89316,-1.17863 -1.36844,-0.82907 5.80347,-0.82907 3.86898,0 7.73796,0 11.60693,0 1.38178,0 2.76356,0 4.14533,0 0.55271,0 1.11616,0.1084 1.65814,0 0.85694,-0.17139 1.62518,-0.68539 2.4872,-0.82906 1.36298,-0.22717 2.76355,0 4.14533,0 2.21085,0 4.42169,0 6.63254,0 4.69804,0 9.39608,0 14.09413,0 0.82906,0 1.65813,0 2.4872,0 0.27635,0 0.63365,-0.19542 0.82906,0 0.39083,0.39082 -0.17478,1.13378 0,1.65813 2.34862,4.69723 -0.30897,-1.2359 0.82907,3.31627 0.14987,0.5995 0.67919,1.05863 0.82907,1.65813 0.16303,0.65216 0,4.11223 0,4.9744 0,0.27635 -0.067,0.56096 0,0.82907 0.21195,0.84781 0.68539,1.62517 0.82906,2.48719 0.1363,0.81779 0,1.65814 0,2.48721 0,2.21084 0,4.42169 0,6.63253 0,4.69804 0,9.39609 0,14.09413 0,4.69804 0,9.39609 0,14.09413 0,1.10542 0,2.21085 0,3.31627 0,0.27635 0.27636,0.82907 0,0.82907 -0.27635,0 0.27636,-0.82907 0,-0.82907 -0.39082,0 -0.4795,0.65429 -0.82906,0.82907 -0.24718,0.12358 -0.55271,0 -0.82907,0 -0.27635,0 -0.55271,0 -0.82907,0 -1.38178,0 -2.76355,0 -4.14533,0 -2.4872,0 -4.9744,0 -7.4616,0 -0.82906,0 -1.65814,0 -2.4872,0 -0.55271,0 -1.11615,0.10839 -1.65813,0 -0.85694,-0.1714 -1.62518,-0.6854 -2.4872,-0.82907 -0.81779,-0.1363 -1.65814,0 -2.4872,0 -2.4872,0 -4.9744,0 -7.4616,0 -0.82907,0 -1.68289,0.20108 -2.4872,0 -0.37916,-0.0948 -0.4583,-0.70548 -0.82907,-0.82907 -0.52434,-0.17478 -1.10542,0 -1.65813,0 -0.55271,0 -1.10542,0 -1.65813,0 -1.65814,0 -3.31627,0 -4.9744,0 -3.31627,0 -6.63254,0 -9.9488,0 -0.63293,0 -4.45205,-0.17411 -4.97441,0 -0.58623,0.19542 -1.05863,0.67919 -1.65813,0.82907 -0.63047,0.15762 -3.45108,0 -4.14533,0 -3.59262,0 -7.18524,0 -10.77787,0 -0.6071,0 -4.15089,-0.1647 -4.97439,0 -0.85695,0.17138 -1.63026,0.65767 -2.48721,0.82907 -0.54197,0.10839 -1.10542,0 -1.65813,0 -1.65813,0 -3.31627,0 -4.9744,0 -1.10542,0 -2.21084,0 -3.31627,0 -0.55271,0 -1.10542,0 -1.65813,0 -0.27635,0 -0.58188,-0.12359 -0.82906,0 -0.34957,0.17478 -0.4795,0.65428 -0.82907,0.82906 -0.24718,0.12359 -0.55271,0 -0.82907,0 -0.27635,0 -0.55271,0 -0.82906,0 -2.21085,0 -4.42169,0 -6.63254,0 -0.57249,0 -3.0642,-0.12603 -3.31626,0 -0.34957,0.17479 -0.4795,0.65429 -0.82907,0.82907 -0.32872,0.16436 -2.31771,-0.16949 -2.4872,0 -0.19541,0.19541 0.19541,0.63365 0,0.82907 -0.0662,0.0662 -1.32679,-0.0553 -1.65813,0 -1.38997,0.23166 -2.76356,0.55271 -4.14534,0.82906 z"
         style="fill:none;stroke:#ffffff;stroke-width:1.45086658;stroke-linecap:butt;stroke-linejoin:miter;stroke-miterlimit:4;stroke-opacity:1;stroke-dasharray:none" />
      <path
         inkscape:connector-curvature="0"
         id="path2987-3"
         d="m 466.16286,608.21965 c 0,-8.01431 0,-16.02862 0,-24.04293 0,-5.80347 0,-11.60693 0,-17.4104 0,-1.38178 0,-2.76356 0,-4.14533 0,-1.10543 -0.21679,-2.23231 0,-3.31627 0.0766,-0.38324 0.73428,-0.44991 0.82906,-0.82906 0.18459,-0.73834 0,-4.70249 0,-5.80347 0,-0.27636 0,-0.55272 0,-0.82907 0,-0.27636 -0.24717,-0.70548 0,-0.82907 0.49437,-0.24718 1.10543,0 1.65814,0 1.84272,0 4.03893,0.25208 5.80347,0 0.86513,-0.12359 1.61863,-0.73256 2.4872,-0.82906 1.64799,-0.18311 3.31626,0 4.9744,0 1.38177,0 2.76355,0 4.14533,0 5.80347,0 11.60693,0 17.4104,0 4.42168,0 8.84337,0 13.26506,0 2.21085,0 4.42169,0 6.63254,0 0.55271,0 1.11615,0.10839 1.65813,0 5.89316,-1.17863 -1.36844,-0.82907 5.80346,-0.82907 3.86898,0 7.73796,0 11.60694,0 1.38178,0 2.76355,0 4.14533,0 0.55271,0 1.11616,0.1084 1.65813,0 0.85695,-0.17139 1.62518,-0.68539 2.48721,-0.82906 1.36297,-0.22717 2.76355,0 4.14533,0 2.21084,0 4.42168,0 6.63253,0 4.69805,0 9.39609,0 14.09413,0 0.82907,0 1.65813,0 2.48721,0 0.27635,0 0.63365,-0.19542 0.82906,0 0.39082,0.39082 -0.17478,1.13378 0,1.65813 2.34862,4.69723 -0.30897,-1.2359 0.82907,3.31627 0.14987,0.59949 0.67919,1.05863 0.82906,1.65813 0.16304,0.65216 0,4.11223 0,4.9744 0,0.27635 -0.067,0.56096 0,0.82906 0.21196,0.84782 0.6854,1.62518 0.82907,2.4872 0.1363,0.81779 0,1.65814 0,2.4872 0,2.21085 0,4.42169 0,6.63254 0,4.69804 0,9.39609 0,14.09413 0,4.69804 0,9.39609 0,14.09413 0,1.10542 0,2.21084 0,3.31627 0,0.27635 0.27635,0.82907 0,0.82907 -0.27636,0 0.27635,-0.82907 0,-0.82907 -0.39082,0 -0.4795,0.65428 -0.82907,0.82907 -0.24718,0.12358 -0.55271,0 -0.82906,0 -0.27636,0 -0.55271,0 -0.82907,0 -1.38178,0 -2.76356,0 -4.14533,0 -2.4872,0 -4.9744,0 -7.4616,0 -0.82907,0 -1.65814,0 -2.4872,0 -0.55271,0 -1.11616,0.10839 -1.65814,0 -0.85694,-0.1714 -1.62518,-0.6854 -2.48719,-0.82907 -0.81779,-0.1363 -1.65814,0 -2.48721,0 -2.48719,0 -4.9744,0 -7.46159,0 -0.82907,0 -1.68289,0.20107 -2.48721,0 -0.37915,-0.0948 -0.45829,-0.70548 -0.82906,-0.82907 -0.52435,-0.17478 -1.10542,0 -1.65813,0 -0.55272,0 -1.10543,0 -1.65814,0 -1.65813,0 -3.31627,0 -4.9744,0 -3.31627,0 -6.63253,0 -9.9488,0 -0.63292,0 -4.45205,-0.17412 -4.9744,0 -0.58624,0.19541 -1.05863,0.67919 -1.65813,0.82907 -0.63048,0.15762 -3.45108,0 -4.14533,0 -3.59262,0 -7.18525,0 -10.77787,0 -0.60711,0 -4.1509,-0.1647 -4.9744,0 -0.85694,0.17138 -1.63025,0.65767 -2.4872,0.82907 -0.54197,0.10839 -1.10542,0 -1.65813,0 -1.65813,0 -3.31627,0 -4.9744,0 -1.10542,0 -2.21084,0 -3.31627,0 -0.55271,0 -1.10542,0 -1.65813,0 -0.27636,0 -0.58189,-0.12359 -0.82907,0 -0.34956,0.17477 -0.4795,0.65428 -0.82906,0.82906 -0.24718,0.12359 -0.55271,0 -0.82907,0 -0.27635,0 -0.55271,0 -0.82907,0 -2.21084,0 -4.42169,0 -6.63253,0 -0.57249,0 -3.0642,-0.12603 -3.31627,0 -0.34956,0.17479 -0.4795,0.65429 -0.82906,0.82907 -0.32872,0.16436 -2.31771,-0.16949 -2.48721,0 -0.1954,0.19541 0.19542,0.63365 0,0.82906 -0.0662,0.0662 -1.32678,-0.0552 -1.65813,0 -1.38997,0.23167 -2.76355,0.55271 -4.14533,0.82907 z"
         style="fill:none;stroke:#ffffff;stroke-width:1.45086658;stroke-linecap:butt;stroke-linejoin:miter;stroke-miterlimit:4;stroke-opacity:1;stroke-dasharray:none" />
      <path
         inkscape:connector-curvature="0"
         id="path2987-25"
         d="m 318.589,718.48552 c 0,-8.01431 0,-16.02863 0,-24.04294 0,-5.80346 0,-11.60693 0,-17.41039 0,-1.38178 0,-2.76356 0,-4.14534 0,-1.10542 -0.21679,-2.23231 0,-3.31626 0.0766,-0.38324 0.73427,-0.44992 0.82906,-0.82907 0.18459,-0.73834 0,-4.70249 0,-5.80346 0,-0.27637 0,-0.55272 0,-0.82908 0,-0.27635 -0.24717,-0.70547 0,-0.82906 0.49437,-0.24718 1.10543,0 1.65814,0 1.84272,0 4.03893,0.25208 5.80347,0 0.86513,-0.12359 1.61863,-0.73256 2.48719,-0.82907 1.648,-0.18311 3.31627,0 4.9744,0 1.38178,0 2.76356,0 4.14534,0 5.80347,0 11.60693,0 17.4104,0 4.42168,0 8.84337,0 13.26506,0 2.21084,0 4.42169,0 6.63253,0 0.55272,0 1.11616,0.1084 1.65814,0 5.89316,-1.17863 -1.36844,-0.82906 5.80346,-0.82906 3.86898,0 7.73796,0 11.60694,0 1.38178,0 2.76355,0 4.14533,0 0.55271,0 1.11616,0.10839 1.65813,0 0.85695,-0.17139 1.62518,-0.6854 2.4872,-0.82907 1.36298,-0.22716 2.76356,0 4.14534,0 2.21084,0 4.42168,0 6.63253,0 4.69805,0 9.39609,0 14.09413,0 0.82907,0 1.65813,0 2.4872,0 0.27636,0 0.63366,-0.19541 0.82907,0 0.39082,0.39082 -0.17478,1.13378 0,1.65813 2.34862,4.69724 -0.30898,-1.2359 0.82907,3.31627 0.14987,0.5995 0.67919,1.05864 0.82906,1.65813 0.16304,0.65216 0,4.11224 0,4.9744 0,0.27636 -0.067,0.56097 0,0.82907 0.21196,0.84782 0.6854,1.62518 0.82907,2.4872 0.1363,0.81779 0,1.65813 0,2.4872 0,2.21084 0,4.42169 0,6.63253 0,4.69805 0,9.39609 0,14.09413 0,4.69805 0,9.39609 0,14.09414 0,1.10542 0,2.21084 0,3.31626 0,0.27636 0.27635,0.82907 0,0.82907 -0.27636,0 0.27635,-0.82907 0,-0.82907 -0.39082,0 -0.4795,0.65429 -0.82907,0.82907 -0.24718,0.12359 -0.55271,0 -0.82906,0 -0.27636,0 -0.55271,0 -0.82907,0 -1.38178,0 -2.76356,0 -4.14533,0 -2.4872,0 -4.9744,0 -7.4616,0 -0.82907,0 -1.65814,0 -2.48721,0 -0.55271,0 -1.11615,0.10839 -1.65813,0 -0.85694,-0.17139 -1.62518,-0.6854 -2.48719,-0.82907 -0.81779,-0.13629 -1.65814,0 -2.48721,0 -2.48719,0 -4.9744,0 -7.4616,0 -0.82906,0 -1.68288,0.20108 -2.4872,0 -0.37915,-0.0948 -0.45829,-0.70547 -0.82906,-0.82906 -0.52435,-0.17479 -1.10543,0 -1.65814,0 -0.55271,0 -1.10542,0 -1.65813,0 -1.65813,0 -3.31627,0 -4.9744,0 -3.31627,0 -6.63253,0 -9.9488,0 -0.63292,0 -4.45205,-0.17412 -4.9744,0 -0.58624,0.19541 -1.05863,0.67919 -1.65813,0.82906 -0.63048,0.15762 -3.45108,0 -4.14534,0 -3.59261,0 -7.18524,0 -10.77786,0 -0.60711,0 -4.1509,-0.1647 -4.9744,0 -0.85694,0.17139 -1.63026,0.65768 -2.4872,0.82907 -0.54197,0.10839 -1.10542,0 -1.65813,0 -1.65813,0 -3.31627,0 -4.9744,0 -1.10542,0 -2.21084,0 -3.31627,0 -0.55271,0 -1.10542,0 -1.65813,0 -0.27636,0 -0.58189,-0.12359 -0.82907,0 -0.34957,0.17478 -0.4795,0.65429 -0.82906,0.82907 -0.24719,0.12359 -0.55272,0 -0.82907,0 -0.27636,0 -0.55271,0 -0.82907,0 -2.21084,0 -4.42169,0 -6.63253,0 -0.57249,0 -3.0642,-0.12604 -3.31627,0 -0.34956,0.17478 -0.4795,0.65428 -0.82906,0.82906 -0.32872,0.16436 -2.31771,-0.16949 -2.48721,0 -0.19541,0.19542 0.19542,0.63366 0,0.82907 -0.0662,0.0662 -1.32678,-0.0553 -1.65813,0 -1.38997,0.23166 -2.76355,0.55271 -4.14533,0.82907 z"
         style="fill:none;stroke:#ffffff;stroke-width:1.45086658;stroke-linecap:butt;stroke-linejoin:miter;stroke-miterlimit:4;stroke-opacity:1;stroke-dasharray:none" />
      <path
         inkscape:connector-curvature="0"
         id="path3023"
         d="m 301.60637,701.02463 c -17.34893,-8.07625 0.63761,0.89281 -8.29067,-1.65813 -1.18834,-0.33952 -2.14379,-1.26731 -3.31627,-1.65813 -0.52434,-0.17478 -1.11294,0.0909 -1.65813,0 -1.12394,-0.18732 -2.2353,-0.46875 -3.31627,-0.82907 -2.98059,-0.99353 -6.37179,-2.57508 -9.11973,-4.14533 -0.86513,-0.49436 -1.62207,-1.16378 -2.4872,-1.65813 -1.07306,-0.61319 -2.25649,-1.02227 -3.31626,-1.65814 -0.33514,-0.20108 -0.51641,-0.59457 -0.82907,-0.82907 -1.59426,-1.19569 -3.38013,-2.12056 -4.9744,-3.31626 -0.31266,-0.23449 -0.55271,-0.55271 -0.82907,-0.82906 -1.10542,-1.10543 -2.21084,-2.21085 -3.31626,-3.31627 -1.38178,-1.38178 -2.76356,-2.76356 -4.14534,-4.14534 -0.55271,-0.55271 -1.10542,-1.10542 -1.65813,-1.65813 -0.27636,-0.27636 -0.61228,-0.50388 -0.82907,-0.82907 -0.34277,-0.51416 -0.51113,-1.12824 -0.82906,-1.65813 -0.70951,-1.18251 -2.01342,-2.72398 -2.48721,-4.14533 -0.0874,-0.26218 0.1236,-0.58189 0,-0.82907 -1.63034,-3.26069 -1.79256,-1.50126 -2.48719,-4.9744 -0.1084,-0.54198 0.13405,-1.12192 0,-1.65813 -0.14988,-0.5995 -0.59957,-1.08438 -0.82907,-1.65814 -0.32456,-0.8114 -0.43824,-1.70554 -0.82906,-2.48719 -0.17479,-0.34957 -0.70549,-0.4583 -0.82907,-0.82907 -0.17478,-0.52435 0.13405,-1.12193 0,-1.65814 -0.29975,-1.19899 -1.35839,-2.11726 -1.65814,-3.31626 -0.13405,-0.53621 0.13406,-1.12193 0,-1.65813 -0.14987,-0.59951 -0.70788,-1.05219 -0.82906,-1.65814 0,-4.7149 0.37077,-0.54582 -0.82907,-4.14533 -0.0874,-0.26218 0,-0.55272 0,-0.82907 0,-0.82907 0.1626,-1.67423 0,-2.4872 -0.12119,-0.60595 -0.63365,-1.07189 -0.82906,-1.65813 -0.0874,-0.26218 0,-0.55271 0,-0.82907 0,-1.38178 0,-2.76355 0,-4.14533 0,-2.76356 0,-5.52711 0,-8.29067 0,-1.65813 0,-3.31626 0,-4.97439 0,-0.27637 0.19541,-0.63366 0,-0.82908 -0.19542,-0.1954 -0.55272,0 -0.82907,0 -0.55271,0 -1.13379,-0.17478 -1.65814,0 -0.37076,0.12359 -0.55271,0.55271 -0.82906,0.82908 -0.55271,0.55271 -1.03281,1.18914 -1.65814,1.65813 -0.49436,0.37076 -1.14396,0.48629 -1.65813,0.82906 -0.7154,0.47694 -1.83963,1.83963 -2.4872,2.4872 -1.38178,1.38178 -2.76355,2.76356 -4.14533,4.14534 -2.74967,2.74967 0.39082,-0.78166 -0.82907,1.65813 -1.72519,3.45038 0.0572,-0.8863 -1.65813,0.82907 -0.19542,0.19541 0,0.55271 0,0.82906 0,0.27636 -0.19542,1.02448 0,0.82907 0.43695,-0.43696 0.4583,-1.16377 0.82906,-1.65813 1.26999,-1.69331 3.65813,-3.32906 4.9744,-4.9744 0.38603,-0.48254 0.48629,-1.14397 0.82907,-1.65814 0.43358,-0.65037 1.22455,-1.00776 1.65814,-1.65813 0.50489,-0.75734 0.70767,-2.01197 1.65813,-2.4872 0.21445,-0.10723 4.66777,-0.10221 4.9744,0 0.58624,0.19541 1.05863,0.67919 1.65813,0.82907 0.40392,0.10098 2.87788,-0.2192 3.31627,0 0.34956,0.17478 0.4795,0.65428 0.82907,0.82906 0.24717,0.12359 0.63365,-0.19541 0.82906,0 0.19542,0.19542 -0.12359,0.58189 0,0.82907 1.72519,3.45037 -0.0572,-0.8863 1.65813,0.82906 0.19542,0.19542 -0.12359,0.5819 0,0.82907 1.64533,3.29066 0.26204,-3.6642 1.65813,3.31627 0.1084,0.54198 -0.13404,1.12193 0,1.65813 1.00089,4.00352 0.394,-0.0411 1.65814,2.4872 0.12359,0.24718 0,0.55271 0,0.82907"
         style="fill:none;stroke:#ffffff;stroke-width:1.45086658;stroke-linecap:butt;stroke-linejoin:miter;stroke-miterlimit:4;stroke-opacity:1;stroke-dasharray:none" />
      <path
         inkscape:connector-curvature="0"
         id="path3023-7"
         d="m 227.2281,532.23575 c 7.94878,-17.40771 -0.8881,0.64414 1.59728,-8.30261 0.3308,-1.1908 1.25155,-2.15303 1.63376,-3.32834 0.17093,-0.52561 -0.099,-1.11225 -0.0122,-1.65808 0.17908,-1.12529 0.45234,-2.23869 0.80472,-3.32227 0.97164,-2.9878 2.52827,-6.3905 4.07833,-9.14989 0.488,-0.86873 1.15185,-1.63056 1.63984,-2.4993 0.6053,-1.07753 1.00569,-2.26392 1.63377,-3.32834 0.19862,-0.33659 0.59077,-0.52075 0.82296,-0.83512 1.18397,-1.60299 2.09572,-3.3956 3.27969,-4.99859 0.23219,-0.31437 0.54864,-0.55675 0.82296,-0.83513 1.09729,-1.11349 2.19457,-2.227 3.29186,-3.3405 1.3716,-1.39187 2.74321,-2.78375 4.11481,-4.17563 0.54864,-0.55675 1.09728,-1.1135 1.64593,-1.67025 0.27431,-0.27838 0.49937,-0.61596 0.82296,-0.83513 0.51164,-0.34653 1.12446,-0.51939 1.65201,-0.8412 1.17728,-0.71817 2.70914,-2.03335 4.12697,-2.51754 0.26153,-0.0893 0.58278,0.11932 0.82905,-0.006 3.24864,-1.65422 1.48807,-1.80353 4.95602,-2.52362 0.54117,-0.11237 1.12288,0.12582 1.65809,-0.0122 0.59838,-0.15427 1.07995,-0.60751 1.65201,-0.84121 0.809,-0.33051 1.70228,-0.45074 2.48105,-0.84728 0.34827,-0.17735 0.45311,-0.70883 0.82296,-0.83513 0.52305,-0.17862 1.12288,0.12582 1.65809,-0.0122 1.19677,-0.30855 2.10725,-1.37389 3.30401,-1.68242 0.53522,-0.13798 1.12288,0.12582 1.65809,-0.0122 0.59839,-0.15427 1.04697,-0.71557 1.65201,-0.84121 4.71477,-0.0346 0.54853,0.36676 4.13914,-0.85944 0.26153,-0.0893 0.5527,-0.004 0.82905,-0.006 0.82904,-0.006 1.67538,0.15031 2.48713,-0.0182 0.60504,-0.12563 1.06722,-0.6415 1.652,-0.84121 0.26153,-0.0893 0.5527,-0.004 0.82905,-0.006 1.38174,-0.0102 2.76348,-0.0203 4.14522,-0.0304 2.76348,-0.0203 5.52696,-0.0406 8.29044,-0.0608 1.6581,-0.0122 3.31618,-0.0243 4.97427,-0.0365 0.27635,-0.002 0.63507,0.19076 0.82905,-0.006 0.19397,-0.19685 -0.004,-0.5527 -0.006,-0.82905 -0.004,-0.55269 0.16646,-1.13504 -0.0122,-1.65809 -0.12631,-0.36985 -0.55675,-0.54864 -0.83513,-0.82296 -0.55675,-0.54864 -1.19669,-1.02406 -1.67025,-1.64592 -0.37438,-0.49163 -0.49467,-1.14037 -0.84121,-1.65201 -0.48217,-0.71189 -1.85307,-1.82609 -2.50537,-2.46889 -1.39188,-1.3716 -2.78376,-2.74321 -4.17563,-4.11482 -2.76977,-2.72942 0.7845,0.38508 -1.66417,-0.81688 -3.46294,-1.69983 0.8867,0.0507 -0.84122,-1.65201 -0.19683,-0.19397 -0.55269,0.004 -0.82904,0.006 -0.27634,0.002 -1.02588,-0.1879 -0.82904,0.006 0.44015,0.43374 1.16711,0.44975 1.66417,0.81688 1.70258,1.25753 3.3558,3.63361 5.01076,4.93778 0.48535,0.38248 1.1475,0.47788 1.66417,0.81688 0.65353,0.4288 1.01671,1.21713 1.67025,1.64593 0.76102,0.49932 2.0171,0.6929 2.49929,1.63984 0.1088,0.21366 0.13645,4.6669 0.0365,4.97427 -0.1911,0.58765 -0.67141,1.06358 -0.81687,1.66417 -0.098,0.40464 0.24029,2.8762 0.0243,3.31618 -0.17221,0.35083 -0.65074,0.48428 -0.82296,0.83512 -0.12177,0.24808 0.20006,0.63221 0.006,0.82905 -0.19397,0.19684 -0.58277,-0.11932 -0.82904,0.006 -3.43763,1.75045 0.88585,-0.0637 -0.81688,1.66417 -0.19398,0.19684 -0.58278,-0.11932 -0.82904,0.006 -3.2785,1.66942 3.66603,0.23515 -3.30402,1.68241 -0.54117,0.11237 -1.12288,-0.12581 -1.65809,0.0122 -3.99606,1.03022 0.044,0.39367 -2.47497,1.67633 -0.24626,0.1254 -0.5527,0.004 -0.82905,0.006"
         style="fill:none;stroke:#ffffff;stroke-width:1.45086658;stroke-linecap:butt;stroke-linejoin:miter;stroke-miterlimit:4;stroke-opacity:1;stroke-dasharray:none" />
      <path
         inkscape:connector-curvature="0"
         id="path3023-8"
         d="m 447.15476,463.47974 c 18.72234,3.96045 -0.82234,-0.72623 8.45109,-0.25214 1.23429,0.0631 2.37418,0.7518 3.60456,0.86845 0.55024,0.0522 1.06387,-0.33924 1.61552,-0.37353 1.13724,-0.0707 2.28343,-0.0468 3.41779,0.0607 3.12779,0.29656 6.7881,1.07351 9.81914,1.98437 0.95425,0.28677 1.84254,0.76845 2.7968,1.05521 1.18361,0.3557 2.42877,0.48768 3.60455,0.86846 0.37182,0.12042 0.63707,0.46296 0.99452,0.62099 1.82264,0.80582 3.77096,1.30461 5.5936,2.11044 0.35745,0.15802 0.66301,0.41399 0.99452,0.62098 1.32603,0.828 2.65207,1.65599 3.97809,2.48397 1.65753,1.03499 3.31507,2.06998 4.97261,3.10496 0.66301,0.41399 1.32602,0.82799 1.98903,1.24199 0.33152,0.20699 0.71006,0.35299 0.99453,0.62098 0.44979,0.42374 0.75216,0.98411 1.18128,1.42875 0.95766,0.99229 2.5753,2.20041 3.3571,3.47849 0.1442,0.23576 0.0107,0.59478 0.18676,0.80776 2.32298,2.80961 2.08469,1.05886 3.54386,4.28624 0.22768,0.50364 0.12213,1.12328 0.37353,1.61551 0.28108,0.55033 0.82843,0.92145 1.18129,1.42876 0.49901,0.71743 0.81119,1.56298 1.36805,2.23649 0.24903,0.30121 0.79059,0.2876 0.99452,0.621 0.28838,0.4715 0.12213,1.12328 0.37353,1.61552 0.56216,1.10063 1.80043,1.75683 2.36257,2.85749 0.25138,0.49224 0.12214,1.12328 0.37354,1.6155 0.28107,0.55033 0.9267,0.86568 1.18128,1.42876 1.06213,4.5937 -0.23829,0.61532 1.74158,3.85201 0.1442,0.23576 0.12451,0.53851 0.18677,0.80776 0.18676,0.80776 0.21873,1.66782 0.56029,2.42327 0.25455,0.56308 0.85883,0.9016 1.18128,1.42874 0.1442,0.23577 0.12451,0.53851 0.18677,0.80776 0.31127,1.34627 0.62255,2.69253 0.93382,4.03879 0.62255,2.69252 1.2451,5.38504 1.86765,8.07756 0.37353,1.61551 0.74706,3.23102 1.12059,4.84653 0.0623,0.26926 -0.0476,0.66139 0.18677,0.80777 0.23441,0.14636 0.5385,-0.12451 0.80775,-0.18677 0.5385,-0.12451 1.14402,-0.0851 1.61552,-0.37354 0.33341,-0.2039 0.41399,-0.663 0.62099,-0.99451 0.41399,-0.66302 0.73838,-1.39124 1.24198,-1.98905 0.39813,-0.4726 1.00501,-0.73149 1.42874,-1.18128 0.58958,-0.62584 1.37793,-2.20676 1.86299,-2.98356 1.03498,-1.65754 2.06996,-3.31508 3.10494,-4.97261 2.05958,-3.29842 -0.20469,0.8496 0.43424,-1.80228 0.90356,-3.75033 0.14391,0.87641 1.42874,-1.18129 0.14637,-0.23441 -0.12451,-0.5385 -0.18676,-0.80775 -0.0623,-0.26926 -0.0404,-1.04217 -0.18677,-0.80776 -0.32728,0.52416 -0.18435,1.2371 -0.43422,1.80227 -0.85589,1.93589 -2.81416,4.06756 -3.72596,5.96713 -0.2674,0.55711 -0.21608,1.22412 -0.43421,1.80229 -0.27594,0.73133 -0.96607,1.25771 -1.242,1.98904 -0.3213,0.85161 -0.23624,2.11967 -1.05521,2.7968 -0.1848,0.15277 -4.52477,1.1511 -4.84655,1.12058 -0.61518,-0.0583 -1.18441,-0.42325 -1.80227,-0.43423 -0.41628,-0.007 -2.75452,0.86187 -3.23102,0.74707 -0.37995,-0.0915 -0.61457,-0.52945 -0.99453,-0.62099 -0.26866,-0.0647 -0.57334,0.33312 -0.80775,0.18676 -0.23441,-0.14637 -0.0107,-0.59477 -0.18676,-0.80775 -2.45812,-2.97306 0.2554,0.85063 -1.80228,-0.43423 -0.23442,-0.14637 -0.0107,-0.59478 -0.18677,-0.80776 -2.34432,-2.83543 0.57014,3.62906 -2.36256,-2.8575 -0.22768,-0.50363 -0.12214,-1.12328 -0.37354,-1.61551 -1.87703,-3.67513 -0.3746,0.12879 -2.17581,-2.04974 -0.17611,-0.21297 -0.12451,-0.5385 -0.18676,-0.80776"
         style="fill:none;stroke:#ffffff;stroke-width:1.45086658;stroke-linecap:butt;stroke-linejoin:miter;stroke-miterlimit:4;stroke-opacity:1;stroke-dasharray:none" />
      <path
         inkscape:connector-curvature="0"
         id="path3023-88"
         d="m 532.07881,620.22321 c -9.60178,16.55346 0.94646,-0.55484 -2.39604,8.10824 -0.44489,1.15305 -1.45474,2.02131 -1.94928,3.15395 -0.22117,0.50652 -0.009,1.1166 -0.14892,1.65143 -0.28752,1.10257 -0.66761,2.18416 -1.12356,3.2284 -1.25722,2.87931 -3.13694,6.11476 -4.94766,8.71056 -0.57006,0.81724 -1.30475,1.51099 -1.87481,2.32823 -0.70708,1.01365 -1.2208,2.15555 -1.94928,3.15394 -0.23037,0.31572 -0.63855,0.46092 -0.90018,0.75126 -1.33405,1.48042 -2.41558,3.17602 -3.74963,4.65645 -0.26162,0.29033 -0.60012,0.50083 -0.90017,0.75125 -1.20025,1.00167 -2.40048,2.00335 -3.60072,3.00502 -1.50029,1.2521 -3.00059,2.50418 -4.50089,3.75628 -0.60011,0.50083 -1.20023,1.00167 -1.80035,1.50251 -0.30006,0.25041 -0.55683,0.56454 -0.90017,0.75125 -0.54288,0.29521 -1.16959,0.40774 -1.7259,0.67679 -1.24145,0.60044 -2.8938,1.76063 -4.35196,2.10485 -0.26897,0.0635 -0.56844,-0.17536 -0.82572,-0.0745 -3.39394,1.3309 -1.65619,1.65049 -5.17768,2.03037 -0.54952,0.0593 -1.10535,-0.23427 -1.65143,-0.14892 -0.61054,0.0954 -1.13385,0.49975 -1.7259,0.6768 -0.83727,0.25037 -1.73801,0.28329 -2.5516,0.60233 -0.36386,0.14268 -0.51981,0.66146 -0.90018,0.75125 -0.53793,0.12698 -1.10535,-0.23427 -1.65144,-0.14892 -1.22107,0.19085 -2.2307,1.16274 -3.45178,1.35359 -0.54608,0.0854 -1.10535,-0.23428 -1.65143,-0.14892 -0.61054,0.0954 -1.11151,0.61051 -1.72589,0.67679 -4.69585,-0.42346 -0.51032,-0.41829 -4.20304,0.45341 -0.26897,0.0635 -0.55049,-0.0496 -0.82573,-0.0745 -0.82571,-0.0745 -1.65286,-0.3123 -2.47714,-0.22338 -0.61439,0.0663 -1.12448,0.53482 -1.72589,0.6768 -0.26897,0.0635 -0.55048,-0.0496 -0.82572,-0.0745 -1.3762,-0.1241 -2.75239,-0.2482 -4.12858,-0.3723 -2.75239,-0.24821 -5.50477,-0.49641 -8.25716,-0.74461 -1.65143,-0.14893 -3.30287,-0.29785 -4.95429,-0.44677 -0.27525,-0.0248 -0.61355,-0.25154 -0.82573,-0.0745 -0.21217,0.17708 -0.0496,0.55048 -0.0745,0.82572 -0.0496,0.55048 -0.2759,1.11351 -0.14892,1.65144 0.0898,0.38037 0.50084,0.60011 0.75126,0.90018 0.50084,0.60011 1.09157,1.13543 1.50251,1.80035 0.32487,0.52566 0.38158,1.18302 0.67679,1.72589 0.41076,0.75535 1.66697,1.99741 2.25377,2.70053 1.25209,1.5003 2.50418,3.00059 3.75627,4.50089 2.4916,2.98551 -0.74339,-0.45945 1.57697,0.97464 3.28149,2.0281 -0.87758,-0.13659 0.6768,1.72589 0.17707,0.21218 0.55047,0.0496 0.82571,0.0745 0.27524,0.0248 1.00279,0.28664 0.82571,0.0745 -0.39594,-0.47443 -1.11791,-0.56097 -1.57696,-0.97463 -1.57241,-1.41693 -2.98706,-3.94234 -4.50753,-5.40107 -0.44592,-0.4278 -1.09567,-0.58707 -1.57697,-0.97464 -0.60881,-0.49024 -0.89372,-1.31011 -1.50252,-1.80035 -0.70893,-0.57087 -1.94028,-0.88552 -2.32822,-1.87482 -0.0875,-0.22322 0.31743,-4.65808 0.44677,-4.9543 0.24727,-0.56632 0.77152,-0.99335 0.97464,-1.57697 0.13684,-0.39321 0.0402,-2.88593 0.29784,-3.30286 0.20548,-0.33245 0.69471,-0.4188 0.90018,-0.75126 0.14529,-0.23507 -0.13772,-0.64864 0.0745,-0.82571 0.21217,-0.17707 0.56844,0.17535 0.82572,0.0745 3.59137,-1.40832 -0.88786,-0.0226 0.97464,-1.57697 0.21217,-0.17707 0.56843,0.17536 0.82571,0.0745 3.42513,-1.34313 -3.62586,-0.59007 3.45179,-1.35359 0.54952,-0.0593 1.10535,0.23428 1.65143,0.14893 4.07723,-0.63727 -0.006,-0.39609 2.62607,-1.42805 0.25728,-0.10089 0.55048,0.0496 0.82572,0.0745"
         style="fill:none;stroke:#ffffff;stroke-width:1.45086658;stroke-linecap:butt;stroke-linejoin:miter;stroke-miterlimit:4;stroke-opacity:1;stroke-dasharray:none" />
      <text
         sodipodi:linespacing="125%"
         id="text3059"
         y="463.08252"
         x="332.28183"
         style="font-size:12.76762581px;font-style:normal;font-weight:normal;line-height:125%;letter-spacing:0px;word-spacing:0px;fill:#ffffff;fill-opacity:1;stroke:none;font-family:Sans"
         xml:space="preserve"><tspan
           style="font-style:normal;font-variant:normal;font-weight:normal;font-stretch:normal;fill:#ffffff;fill-opacity:1;font-family:DejaVu Sans;-inkscape-font-specification:DejaVu Sans"
           y="463.08252"
           x="332.28183"
           id="tspan3061"
           sodipodi:role="line">sourcecode</tspan><tspan
           style="font-style:normal;font-variant:normal;font-weight:normal;font-stretch:normal;fill:#ffffff;fill-opacity:1;font-family:DejaVu Sans;-inkscape-font-specification:DejaVu Sans"
           id="tspan3063"
           y="479.04205"
           x="332.28183"
           sodipodi:role="line">management</tspan></text>
      <text
         sodipodi:linespacing="125%"
         id="text3065"
         y="584.95526"
         x="509.70206"
         style="font-size:9.2855463px;font-style:normal;font-weight:normal;line-height:125%;letter-spacing:0px;word-spacing:0px;fill:#ffffff;fill-opacity:1;stroke:none;font-family:Sans"
         xml:space="preserve"><tspan
           style="font-size:12.76762581px;font-style:normal;font-variant:normal;font-weight:normal;font-stretch:normal;fill:#ffffff;fill-opacity:1;font-family:DejaVu Sans;-inkscape-font-specification:DejaVu Sans"
           y="584.95526"
           x="509.70206"
           id="tspan3067"
           sodipodi:role="line">build</tspan></text>
      <text
         sodipodi:linespacing="125%"
         id="text3069"
         y="694.39209"
         x="353.83755"
         style="font-size:23.21386528px;font-style:normal;font-weight:normal;line-height:125%;letter-spacing:0px;word-spacing:0px;fill:#ffffff;fill-opacity:1;stroke:none;font-family:Sans"
         xml:space="preserve"><tspan
           style="font-size:12.76762581px;fill:#ffffff;fill-opacity:1"
           y="694.39209"
           x="353.83755"
           id="tspan3071"
           sodipodi:role="line">testing</tspan></text>
      <text
         sodipodi:linespacing="125%"
         id="text3073"
         y="588.27155"
         x="192.99864"
         style="font-size:12.76762581px;font-style:normal;font-weight:normal;line-height:125%;letter-spacing:0px;word-spacing:0px;fill:#ffffff;fill-opacity:1;stroke:none;font-family:Sans"
         xml:space="preserve"><tspan
           y="588.27155"
           x="192.99864"
           id="tspan3075"
           sodipodi:role="line">development</tspan></text>
      <text
         transform="matrix(0.70374048,-0.71045713,0.71045713,0.70374048,0,0)"
         sodipodi:linespacing="125%"
         id="text3073-6"
         y="542.31854"
         x="-197.6528"
         style="font-size:12.76762581px;font-style:normal;font-weight:normal;line-height:125%;letter-spacing:0px;word-spacing:0px;fill:#ffffff;fill-opacity:1;stroke:none;font-family:Sans"
         xml:space="preserve"><tspan
           y="542.31854"
           x="-197.6528"
           id="tspan3075-8"
           sodipodi:role="line">commit</tspan></text>
      <text
         transform="matrix(0.69455619,0.71943846,-0.71943846,0.69455619,0,0)"
         sodipodi:linespacing="125%"
         id="text3073-0"
         y="-7.3390636"
         x="667.15753"
         style="font-size:12.76762581px;font-style:normal;font-weight:normal;line-height:125%;letter-spacing:0px;word-spacing:0px;fill:#ffffff;fill-opacity:1;stroke:none;font-family:Sans"
         xml:space="preserve"><tspan
           y="-7.3390636"
           x="667.15753"
           id="tspan3075-2"
           sodipodi:role="line">initiate</tspan></text>
      <text
         transform="matrix(0.70412913,-0.71007195,0.71007195,0.70412913,0,0)"
         sodipodi:linespacing="125%"
         id="text3073-7"
         y="815.91949"
         x="-123.56324"
         style="font-size:12.76762581px;font-style:normal;font-weight:normal;line-height:125%;letter-spacing:0px;word-spacing:0px;fill:#ffffff;fill-opacity:1;stroke:none;font-family:Sans"
         xml:space="preserve"><tspan
           y="815.91949"
           x="-123.56324"
           id="tspan3075-26"
           sodipodi:role="line">test</tspan></text>
      <text
         transform="matrix(0.72977113,0.68369152,-0.68369152,0.72977113,0,0)"
         sodipodi:linespacing="125%"
         id="text3073-4"
         y="292.35797"
         x="633.0567"
         style="font-size:12.76762581px;font-style:normal;font-weight:normal;line-height:125%;letter-spacing:0px;word-spacing:0px;fill:#ffffff;fill-opacity:1;stroke:none;font-family:Sans"
         xml:space="preserve"><tspan
           y="292.35797"
           x="633.0567"
           id="tspan3075-4"
           sodipodi:role="line">reporting</tspan></text>
    </g>
    <path
       style="fill:none;stroke:#ffffff;stroke-width:2.5;stroke-linecap:butt;stroke-linejoin:miter;stroke-miterlimit:4;stroke-opacity:1;stroke-dasharray:none"
       d="m 277.83433,856.73483 c 0,-13.8095 0,-27.619 0,-41.42852 0,-10 0,-20 0,-30 0,-2.38095 0,-4.76191 0,-7.14286 0,-1.90476 -0.37355,-3.84651 0,-5.71428 0.13207,-0.66036 1.26524,-0.77525 1.42857,-1.42857 0.31806,-1.27224 0,-8.1029 0,-10 0,-0.4762 0,-0.95239 0,-1.42858 0,-0.47619 -0.42591,-1.21561 0,-1.42857 0.85184,-0.42592 1.90477,0 2.85715,0 3.1752,0 6.95951,0.43436 10,0 1.49071,-0.21296 2.78908,-1.26228 4.28571,-1.42857 2.83967,-0.31552 5.71429,0 8.57143,0 2.38095,0 4.7619,0 7.14286,0 10,0 20,0 30,0 7.61904,0 15.23809,0 22.85714,0 3.80952,0 7.61905,0 11.42857,0 0.95238,0 1.92326,0.18678 2.85714,0 10.15455,-2.03091 -2.35797,-1.42857 10,-1.42857 6.66667,0 13.33334,0 20,0 2.38096,0 4.76191,0 7.14286,0 0.95238,0 1.92326,0.18678 2.85714,0 1.47661,-0.29532 2.80036,-1.18101 4.28572,-1.42857 2.34856,-0.39143 4.7619,0 7.14286,0 3.80952,0 7.61904,0 11.42859,0 8.0952,0 16.1905,0 24.2857,0 1.4286,0 2.8571,0 4.2857,0 0.4762,0 1.0919,-0.33672 1.4286,0 0.6734,0.67343 -0.3012,1.95363 0,2.85714 4.0469,8.09384 -0.5324,-2.12959 1.4286,5.71429 0.2582,1.033 1.1703,1.82414 1.4285,2.85714 0.281,1.12374 0,7.08582 0,8.57143 0,0.47619 -0.1155,0.9666 0,1.42857 0.3652,1.46088 1.181,2.80036 1.4286,4.28571 0.2349,1.40914 0,2.85715 0,4.28572 0,3.80952 0,7.61905 0,11.42857 0,8.09524 0,16.19048 0,24.28571 0,8.09524 0,16.19048 0,24.28571 0,1.9048 0,3.8095 0,5.7143 0,0.4762 0.4762,1.4286 0,1.4286 -0.4762,0 0.4762,-1.4286 0,-1.4286 -0.6734,0 -0.8262,1.1274 -1.4286,1.4286 -0.4259,0.2129 -0.9524,0 -1.4285,0 -0.4762,0 -0.9524,0 -1.4286,0 -2.381,0 -4.7619,0 -7.1429,0 -4.2857,0 -8.5714,0 -12.8571,0 -1.4286,0 -2.8572,0 -4.2857,0 -0.9524,0 -1.9233,0.1867 -2.8572,0 -1.4766,-0.2954 -2.8003,-1.1811 -4.28569,-1.4286 -1.40914,-0.2349 -2.85715,0 -4.28572,0 -4.28571,0 -8.57143,0 -12.85714,0 -1.42857,0 -2.8998,0.3465 -4.28572,0 -0.65332,-0.1633 -0.78969,-1.2156 -1.42857,-1.4286 -0.9035,-0.3012 -1.90476,0 -2.85714,0 -0.95238,0 -1.90476,0 -2.85714,0 -2.85715,0 -5.71429,0 -8.57143,0 -5.71429,0 -11.42857,0 -17.14286,0 -1.09059,0 -7.67136,-0.3 -8.57143,0 -1.01015,0.3367 -1.82414,1.1703 -2.85714,1.4286 -1.08638,0.2716 -5.94659,0 -7.14286,0 -6.19047,0 -12.38095,0 -18.57143,0 -1.04611,0 -7.15244,-0.2838 -8.57142,0 -1.47661,0.2953 -2.80911,1.1332 -4.28572,1.4286 -0.93388,0.1867 -1.90476,0 -2.85714,0 -2.85714,0 -5.71429,0 -8.57143,0 -1.90476,0 -3.80952,0 -5.71429,0 -0.95238,0 -1.90476,0 -2.85714,0 -0.47619,0 -1.00265,-0.213 -1.42857,0 -0.60234,0.3011 -0.82623,1.1274 -1.42857,1.4285 -0.42592,0.213 -0.95238,0 -1.42857,0 -0.47619,0 -0.95238,0 -1.42857,0 -3.80953,0 -7.61905,0 -11.42858,0 -0.98646,0 -5.27994,-0.2171 -5.71428,0 -0.60234,0.3012 -0.82623,1.1274 -1.42857,1.4286 -0.56642,0.2832 -3.99366,-0.292 -4.28572,0 -0.33671,0.3367 0.33672,1.0919 0,1.4286 -0.11404,0.114 -2.2862,-0.095 -2.85714,0 -2.39507,0.3992 -4.7619,0.9524 -7.14286,1.4285 z"
       id="path2987-25-1"
       inkscape:connector-curvature="0" />
    <path
       style="fill:none;stroke:#ffffff;stroke-width:2.5;stroke-linecap:butt;stroke-linejoin:miter;stroke-miterlimit:4;stroke-opacity:1;stroke-dasharray:none"
       d="m 540.69147,852.44914 c 0,-13.8095 0,-27.619 0,-41.42852 0,-10 0,-20 0,-30 0,-2.38095 0,-4.76191 0,-7.14286 0,-1.90476 -0.37355,-3.84651 0,-5.71428 0.13207,-0.66036 1.26524,-0.77525 1.42857,-1.42857 0.31806,-1.27224 0,-8.1029 0,-10 0,-0.4762 0,-0.95239 0,-1.42858 0,-0.47619 -0.42591,-1.21561 0,-1.42857 0.85184,-0.42592 1.90477,0 2.85715,0 3.1752,0 6.95951,0.43436 10,0 1.49071,-0.21296 2.78908,-1.26228 4.28571,-1.42857 2.83967,-0.31552 5.71429,0 8.57143,0 2.38095,0 4.7619,0 7.14286,0 10,0 20,0 30,0 7.61904,0 15.23809,0 22.85714,0 3.80952,0 7.61905,0 11.42857,0 0.95238,0 1.92326,0.18678 2.85714,0 10.15455,-2.03091 -2.35797,-1.42857 10,-1.42857 6.66667,0 13.33334,0 20,0 2.38096,0 4.76191,0 7.14286,0 0.95238,0 1.92326,0.18678 2.85714,0 1.47661,-0.29532 2.80036,-1.18101 4.28572,-1.42857 2.34856,-0.39143 4.7619,0 7.14286,0 3.80952,0 7.61904,0 11.42859,0 8.0952,0 16.1905,0 24.2857,0 1.4286,0 2.8571,0 4.2857,0 0.4762,0 1.0919,-0.33672 1.4286,0 0.6734,0.67343 -0.3012,1.95363 0,2.85714 4.0469,8.09384 -0.5324,-2.12959 1.4286,5.71429 0.2582,1.033 1.1703,1.82414 1.4285,2.85714 0.281,1.12374 0,7.08582 0,8.57143 0,0.47619 -0.1155,0.9666 0,1.42857 0.3652,1.46088 1.181,2.80036 1.4286,4.28571 0.2349,1.40914 0,2.85715 0,4.28572 0,3.80952 0,7.61905 0,11.42857 0,8.09524 0,16.19048 0,24.28571 0,8.09524 0,16.19048 0,24.28571 0,1.9048 0,3.8095 0,5.7143 0,0.4762 0.4762,1.4286 0,1.4286 -0.4762,0 0.4762,-1.4286 0,-1.4286 -0.6734,0 -0.8262,1.1274 -1.4286,1.4286 -0.4259,0.2129 -0.9524,0 -1.4285,0 -0.4762,0 -0.9524,0 -1.4286,0 -2.381,0 -4.7619,0 -7.1429,0 -4.2857,0 -8.5714,0 -12.8571,0 -1.4286,0 -2.8572,0 -4.2857,0 -0.9524,0 -1.9233,0.1867 -2.8572,0 -1.4766,-0.2954 -2.8003,-1.1811 -4.28569,-1.4286 -1.40914,-0.2349 -2.85715,0 -4.28572,0 -4.28571,0 -8.57143,0 -12.85714,0 -1.42857,0 -2.8998,0.3465 -4.28572,0 -0.65332,-0.1633 -0.78969,-1.2156 -1.42857,-1.4286 -0.9035,-0.3012 -1.90476,0 -2.85714,0 -0.95238,0 -1.90476,0 -2.85714,0 -2.85715,0 -5.71429,0 -8.57143,0 -5.71429,0 -11.42857,0 -17.14286,0 -1.09059,0 -7.67136,-0.3 -8.57143,0 -1.01015,0.3367 -1.82414,1.1703 -2.85714,1.4286 -1.08638,0.2716 -5.94659,0 -7.14286,0 -6.19047,0 -12.38095,0 -18.57143,0 -1.04611,0 -7.15244,-0.2838 -8.57142,0 -1.47661,0.2953 -2.80911,1.1332 -4.28572,1.4286 -0.93388,0.1867 -1.90476,0 -2.85714,0 -2.85714,0 -5.71429,0 -8.57143,0 -1.90476,0 -3.80952,0 -5.71429,0 -0.95238,0 -1.90476,0 -2.85714,0 -0.47619,0 -1.00265,-0.213 -1.42857,0 -0.60234,0.3011 -0.82623,1.1274 -1.42857,1.4285 -0.42592,0.213 -0.95238,0 -1.42857,0 -0.47619,0 -0.95238,0 -1.42857,0 -3.80953,0 -7.61905,0 -11.42858,0 -0.98646,0 -5.27994,-0.2171 -5.71428,0 -0.60234,0.3012 -0.82623,1.1274 -1.42857,1.4286 -0.56642,0.2832 -3.99366,-0.292 -4.28572,0 -0.33671,0.3367 0.33672,1.0919 0,1.4286 -0.11404,0.114 -2.2862,-0.095 -2.85714,0 -2.39507,0.3992 -4.7619,0.9524 -7.14286,1.4285 z"
       id="path2987-25-1-5"
       inkscape:connector-curvature="0" />
    <path
       style="fill:none;stroke:#ffffff;stroke-width:2.5;stroke-linecap:butt;stroke-linejoin:miter;stroke-miterlimit:4;stroke-opacity:1;stroke-dasharray:none"
       d="m 804.97718,848.16342 c 0,-13.8095 0,-27.619 0,-41.42852 0,-10 0,-20 0,-30 0,-2.38095 0,-4.76191 0,-7.14286 0,-1.90476 -0.37355,-3.84651 0,-5.71428 0.13207,-0.66036 1.26524,-0.77525 1.42857,-1.42857 0.31806,-1.27224 0,-8.1029 0,-10 0,-0.4762 0,-0.95239 0,-1.42858 0,-0.47619 -0.42591,-1.21561 0,-1.42857 0.85184,-0.42592 1.90477,0 2.85715,0 3.1752,0 6.95951,0.43436 10,0 1.49071,-0.21296 2.78908,-1.26228 4.28571,-1.42857 2.83967,-0.31552 5.71429,0 8.57143,0 2.38095,0 4.7619,0 7.14286,0 10,0 20,0 30,0 7.61904,0 15.23809,0 22.85714,0 3.80952,0 7.61905,0 11.42857,0 0.95238,0 1.92326,0.18678 2.85714,0 10.15455,-2.03091 -2.35797,-1.42857 10,-1.42857 6.66667,0 13.33334,0 20,0 2.38096,0 4.76191,0 7.14286,0 0.95238,0 1.92326,0.18678 2.85714,0 1.47661,-0.29532 2.80036,-1.18101 4.28572,-1.42857 2.34856,-0.39143 4.7619,0 7.14286,0 3.80952,0 7.61904,0 11.42859,0 8.0952,0 16.1905,0 24.2857,0 1.4286,0 2.8571,0 4.2857,0 0.4762,0 1.09191,-0.33672 1.42861,0 0.6734,0.67343 -0.3012,1.95363 0,2.85714 4.04687,8.09384 -0.5324,-2.12959 1.42857,5.71429 0.2582,1.033 1.1703,1.82414 1.4285,2.85714 0.281,1.12374 0,7.08582 0,8.57143 0,0.47619 -0.1155,0.9666 0,1.42857 0.3652,1.46088 1.181,2.80036 1.4286,4.28571 0.2349,1.40914 0,2.85715 0,4.28572 0,3.80952 0,7.61905 0,11.42857 0,8.09524 0,16.19048 0,24.28571 0,8.09524 0,16.19048 0,24.28571 0,1.9048 0,3.8095 0,5.7143 0,0.4762 0.4762,1.4286 0,1.4286 -0.4762,0 0.4762,-1.4286 0,-1.4286 -0.6734,0 -0.8262,1.1274 -1.4286,1.4286 -0.4259,0.2129 -0.9524,0 -1.4285,0 -0.4762,0 -0.95237,0 -1.42857,0 -2.38101,0 -4.76191,0 -7.14291,0 -4.2857,0 -8.5714,0 -12.8571,0 -1.4286,0 -2.8572,0 -4.2857,0 -0.9524,0 -1.9233,0.1867 -2.8572,0 -1.4766,-0.2954 -2.8003,-1.1811 -4.28569,-1.4286 -1.40914,-0.2349 -2.85715,0 -4.28572,0 -4.28571,0 -8.57143,0 -12.85714,0 -1.42857,0 -2.8998,0.3465 -4.28572,0 -0.65332,-0.1633 -0.78969,-1.2156 -1.42857,-1.4286 -0.9035,-0.3012 -1.90476,0 -2.85714,0 -0.95238,0 -1.90476,0 -2.85714,0 -2.85715,0 -5.71429,0 -8.57143,0 -5.71429,0 -11.42857,0 -17.14286,0 -1.09059,0 -7.67136,-0.3 -8.57143,0 -1.01015,0.3367 -1.82414,1.1703 -2.85714,1.4286 -1.08638,0.2716 -5.94659,0 -7.14286,0 -6.19047,0 -12.38095,0 -18.57143,0 -1.04611,0 -7.15244,-0.2838 -8.57142,0 -1.47661,0.2953 -2.80911,1.1332 -4.28572,1.4286 -0.93388,0.1867 -1.90476,0 -2.85714,0 -2.85714,0 -5.71429,0 -8.57143,0 -1.90476,0 -3.80952,0 -5.71429,0 -0.95238,0 -1.90476,0 -2.85714,0 -0.47619,0 -1.00265,-0.213 -1.42857,0 -0.60234,0.3011 -0.82623,1.1274 -1.42857,1.4285 -0.42592,0.213 -0.95238,0 -1.42857,0 -0.47619,0 -0.95238,0 -1.42857,0 -3.80953,0 -7.61905,0 -11.42858,0 -0.98646,0 -5.27994,-0.2171 -5.71428,0 -0.60234,0.3012 -0.82623,1.1274 -1.42857,1.4286 -0.56642,0.2832 -3.99366,-0.292 -4.28572,0 -0.33671,0.3367 0.33672,1.0919 0,1.4286 -0.11404,0.114 -2.2862,-0.095 -2.85714,0 -2.39507,0.3992 -4.7619,0.9524 -7.14286,1.4285 z"
       id="path2987-25-1-1"
       inkscape:connector-curvature="0" />
    <path
       style="fill:none;stroke:#ffffff;stroke-width:2;stroke-linecap:butt;stroke-linejoin:miter;stroke-miterlimit:4;stroke-opacity:1;stroke-dasharray:none"
       d="m 479.57915,806.6626 c 4.93486,0 9.86972,0 14.80458,0 1.85057,0 3.70262,0.17454 5.55171,0 3.29369,-0.31089 6.57603,-1.14475 9.86971,-1.45564 1.8491,-0.17454 3.70115,0 5.55172,0 7.40229,0 14.80457,0 22.20686,0 0.41124,0 -0.82247,0 -1.23371,0 -0.41124,0 -0.82248,0 -1.23372,0 -0.20562,0 -0.43294,0.217 -0.61686,0 -0.52018,-0.61375 -0.71353,-2.29753 -1.23371,-2.91129 -0.18391,-0.21699 -0.43294,0.217 -0.61685,0 -0.2601,-0.30687 -0.35678,-1.14876 -0.61686,-1.45564 -0.18391,-0.217 -0.43295,0.217 -0.61686,0 -0.26009,-0.30688 -0.37491,-1.07501 -0.61686,-1.45564 -0.38256,-0.60185 -0.82247,-0.97044 -1.23371,-1.45566 -0.41124,-0.48521 -0.79753,-1.11254 -1.23372,-1.45564 -0.19507,-0.15343 -0.41737,0.11769 -0.61685,0 -1.26163,-0.74428 -2.43953,-2.16701 -3.70115,-2.91129 -2.28247,-1.34653 2.95461,5.66957 -3.08428,-1.45564 -0.52018,-0.61376 -0.76846,-2.08785 -1.23372,-2.91129 -0.36782,-0.65099 -0.85115,-0.85381 -1.23371,-1.45565 -0.48391,-0.76127 -0.71354,-2.29754 -1.23372,-2.91129 -0.18391,-0.217 -0.43294,0.217 -0.61685,0 -0.26009,-0.30688 -0.74691,-2.0694 -0.61686,-1.45564 0.33011,1.55795 2.83281,9.66203 3.08429,10.18951 1.10821,2.32457 2.51495,3.72322 3.70114,5.82259 0.46526,0.82343 0.78693,2.03269 1.23371,2.91128 4.39904,8.65063 0.91097,0.69403 3.70115,7.27823 0.20562,0.48522 0.48681,0.84189 0.61685,1.45565 0.092,0.43398 0,0.97042 0,1.45564 0,0.48521 0,0.97043 0,1.45564 0,1.49338 0.092,3.36336 -0.61685,4.36693 -0.72698,1.02931 -1.66315,0.82301 -2.46743,1.45566 -5.27873,4.15221 6.54969,-2.62725 -4.318,4.36693 -1.20666,0.77657 -2.48776,0.73981 -3.70115,1.45564 -0.44605,0.26315 -0.79753,1.11254 -1.23371,1.45565 -2.00417,1.57646 -2.95511,1.45564 -4.93486,1.45564"
       id="path4056"
       inkscape:connector-curvature="0" />
    <path
       style="fill:none;stroke:#ffffff;stroke-width:2;stroke-linecap:butt;stroke-linejoin:miter;stroke-miterlimit:4;stroke-opacity:1;stroke-dasharray:none"
       d="m 742.43628,803.15332 c 4.93486,0 9.86972,0 14.80458,0 1.85057,0 3.70262,0.17454 5.55171,0 3.29369,-0.31089 6.57603,-1.14475 9.86971,-1.45564 1.8491,-0.17454 3.70115,0 5.55172,0 7.40229,0 14.80457,0 22.20686,0 0.41124,0 -0.82247,0 -1.23371,0 -0.41124,0 -0.82248,0 -1.23372,0 -0.20562,0 -0.43294,0.217 -0.61686,0 -0.52018,-0.61375 -0.71353,-2.29753 -1.23371,-2.91129 -0.18391,-0.21699 -0.43294,0.217 -0.61685,0 -0.2601,-0.30687 -0.35678,-1.14876 -0.61686,-1.45564 -0.18391,-0.217 -0.43295,0.217 -0.61686,0 -0.26009,-0.30688 -0.37491,-1.07501 -0.61686,-1.45564 -0.38256,-0.60185 -0.82247,-0.97044 -1.23371,-1.45566 -0.41124,-0.48521 -0.79753,-1.11254 -1.23372,-1.45564 -0.19507,-0.15343 -0.41737,0.11769 -0.61685,0 -1.26163,-0.74428 -2.43953,-2.16701 -3.70115,-2.91129 -2.28247,-1.34652 2.95461,5.66957 -3.08428,-1.45563 -0.52018,-0.61376 -0.76846,-2.08785 -1.23372,-2.91129 -0.36782,-0.65099 -0.85115,-0.85381 -1.23371,-1.45565 -0.48391,-0.76127 -0.71354,-2.29754 -1.23372,-2.91129 -0.18391,-0.217 -0.43294,0.217 -0.61685,0 -0.26009,-0.30688 -0.74691,-2.0694 -0.61686,-1.45564 0.33011,1.55795 2.83281,9.66202 3.08429,10.1895 1.10821,2.32457 2.51495,3.72322 3.70114,5.82259 0.46526,0.82343 0.78693,2.03269 1.23371,2.91128 4.39904,8.65063 0.91097,0.69403 3.70115,7.27823 0.20562,0.48522 0.48681,0.84189 0.61685,1.45565 0.092,0.43398 0,0.97042 0,1.45564 0,0.48521 0,0.97043 0,1.45564 0,1.49338 0.092,3.36336 -0.61685,4.36693 -0.72698,1.02931 -1.66315,0.82301 -2.46743,1.45566 -5.27873,4.15221 6.54969,-2.62725 -4.318,4.36693 -1.20666,0.77657 -2.48776,0.73981 -3.70115,1.45564 -0.44605,0.26315 -0.79753,1.11254 -1.23371,1.45565 -2.00417,1.57646 -2.95511,1.45564 -4.93486,1.45564"
       id="path4056-2"
       inkscape:connector-curvature="0" />
    <path
       style="fill:none;stroke:#ffffff;stroke-width:2;stroke-linecap:butt;stroke-linejoin:miter;stroke-opacity:1;stroke-miterlimit:4;stroke-dasharray:none"
       d="m 225.71429,318.3802 c 0,2.38095 -0.39143,4.7943 0,7.14285 0.11071,0.66428 1.21561,0.7897 1.42857,1.42858 0.30117,0.9035 0,1.90476 0,2.85714 0,1.42857 0,2.85714 0,4.28571 0,0.47619 -0.15059,0.97682 0,1.42857 0.33671,1.01016 1.17032,1.82414 1.42857,2.85715 0.23099,0.92394 0,1.90476 0,2.85714 0,0.95238 0,1.90476 0,2.85714 0,0.47619 -0.15059,0.97682 0,1.42857 0.33672,1.01016 1.09185,1.84699 1.42857,2.85715 0.29888,0.89664 0,4.56423 0,5.71428 0,3.33334 0,6.66667 0,10 0,0.76316 0.20443,6.734 0,7.14286 -0.30117,0.60234 -1.21561,0.78969 -1.42857,1.42857 -0.42857,1.28572 0.42857,3 0,4.28572 -0.67344,2.0203 -2.18371,3.69398 -2.85714,5.71428 -0.15059,0.45175 0.15058,0.97682 0,1.42857 -0.42041,1.26121 -3.5321,7.441 -4.28572,8.57143 -0.74711,1.12066 -2.11003,1.73648 -2.85714,2.85714 -0.59064,0.88597 -0.83793,1.97118 -1.42857,2.85715 -0.74711,1.12066 -2.11004,1.73648 -2.85715,2.85714 -0.59064,0.88596 -0.83793,1.97118 -1.42857,2.85714 -0.37355,0.56033 -1.1274,0.82624 -1.42857,1.42857 -0.21296,0.42592 0.21296,1.00266 0,1.42858 -0.45498,0.90995 -6.02033,6.02033 -7.14286,7.14285 -0.47619,0.47619 -0.95238,0.95238 -1.42857,1.42857 -0.47619,0.47619 -0.82623,1.12741 -1.42857,1.42858 -0.42592,0.21295 -1.00265,-0.21296 -1.42857,0 -4.73797,4.73797 1.34687,-0.67344 -2.85714,1.42857 -1.20468,0.60234 -1.65247,2.2548 -2.85715,2.85714 -0.42591,0.21296 -1.00265,-0.21296 -1.42857,0 -0.60234,0.30117 -0.95238,0.95238 -1.42857,1.42857 -0.47619,0.47619 -1.1274,0.82623 -1.42857,1.42857 -0.21296,0.42592 0.33672,1.09186 0,1.42857 -0.33672,0.33672 -1.09185,-0.33671 -1.42857,0 -0.33672,0.33672 0.11549,0.9666 0,1.42858 -0.36522,1.46088 -0.65382,2.99446 -1.42857,4.28571 -0.69296,1.15493 -2.11004,1.73648 -2.85715,2.85714 -0.26414,0.39622 0.15059,0.97682 0,1.42857 -0.67343,2.02031 -2.1837,3.69398 -2.85714,5.71429 -0.15058,0.45175 0.15059,0.97682 0,1.42857 -0.33672,1.01015 -1.17032,1.82414 -1.42857,2.85714 -0.23099,0.92395 0.30117,1.95364 0,2.85715 -0.21296,0.63887 -1.1274,0.82623 -1.42857,1.42857 -0.45425,0.90849 0.39439,5.95968 0,7.14286 -0.21296,0.63887 -1.21561,0.78969 -1.42857,1.42857 -0.26334,0.79002 0,7.13278 0,8.57143 0,1.45849 -0.23135,9.30596 0,10 0.21296,0.63887 1.05501,0.86823 1.42857,1.42857 1.18128,1.77192 1.90476,3.80952 2.85714,5.71428 0.95238,1.90476 1.90476,3.80953 2.85714,5.71429 0.47619,0.95238 0.83793,1.97118 1.42858,2.85714 0.37355,0.56033 1.1274,0.82623 1.42857,1.42857 0.21296,0.42592 -0.21296,1.00266 0,1.42857 0.18965,0.3793 3.90641,4.09607 4.28571,4.28572 0.42592,0.21296 0.95238,0 1.42857,0 0.95238,0 1.9332,-0.23099 2.85715,0 1.033,0.25825 1.90476,0.95238 2.85714,1.42857 1.42857,0.47619 2.80911,1.13325 4.28571,1.42857 0.93389,0.18678 1.95364,-0.30117 2.85715,0 0.63887,0.21296 0.78969,1.21561 1.42857,1.42857 1.50171,0.50057 7.10672,-0.36617 8.57143,0 0.65332,0.16333 0.77524,1.26524 1.42857,1.42857 1.38592,0.34648 2.85714,0 4.28571,0 1.42857,0 2.85714,0 4.28572,0 4.7619,0 9.52381,0 14.28571,0 3.80952,0 7.61905,0 11.42857,0 1.42857,0 2.88489,0.28017 4.28572,0 9.27244,-1.85449 -3.18377,-1.42857 5.71428,-1.42857 1.90476,0 3.80953,0 5.71429,0 0.47619,0 1.42857,-0.47619 1.42857,0 0,0.47619 -1.00266,0.21296 -1.42857,0 -0.36273,-0.18136 -3.95916,-3.8503 -4.28572,-4.28571 -1.03015,-1.37355 -1.78458,-2.94502 -2.85714,-4.28572 -1.68277,-2.10345 -4.22007,-3.47295 -5.71429,-5.71428 -0.26414,-0.39622 0,-0.95238 0,-1.42857 -0.47619,-0.47619 -0.95238,-0.95238 -1.42857,-1.42857 -0.47619,-0.4762 -0.82623,-1.12741 -1.42857,-1.42858 -0.42592,-0.21296 -1.09185,0.33672 -1.42857,0 -0.33672,-0.33671 -0.21296,-1.85449 0,-1.42857 1.34687,2.69374 1.51027,5.87769 2.85714,8.57143 0.30117,0.60234 0.95238,0.95238 1.42857,1.42857 1.42858,1.42857 2.99235,2.73368 4.28572,4.28572 1.09915,1.31898 1.82698,2.91217 2.85714,4.28571 0.40406,0.53875 0.95238,0.95238 1.42857,1.42857 0.47619,0.47619 0.82624,1.1274 1.42857,1.42857 0.76191,0.38096 2.57143,-0.85714 1.42858,1.42858 -0.30117,0.60233 -1.05502,0.86823 -1.42858,1.42857 -0.59064,0.88596 -0.67564,2.10422 -1.42857,2.85714 -0.75292,0.75292 -1.90476,0.95238 -2.85714,1.42857 -1.90476,0.95238 -3.86528,1.80057 -5.71429,2.85714 -1.49071,0.85184 -2.75004,2.08931 -4.28571,2.85715 -0.42592,0.21296 -1.09185,-0.33672 -1.42857,0 -3.28306,3.28306 0.37034,2.85714 -2.85714,2.85714 -0.47619,0 -1.09186,0.33672 -1.42858,0 -0.0459,-0.0459 0,-3.93925 0,-4.28571"
       id="path4089"
       inkscape:connector-curvature="0"
       transform="translate(0,308.2677)" />
    <text
       xml:space="preserve"
       style="font-size:22px;font-style:normal;font-weight:normal;line-height:125%;letter-spacing:0px;word-spacing:0px;fill:#ffffff;fill-opacity:1;stroke:none;font-family:Sans"
       x="281.42859"
       y="800.93359"
       id="text4110"
       sodipodi:linespacing="125%"><tspan
         sodipodi:role="line"
         id="tspan4112"
         x="281.42859"
         y="800.93359">    (automated)</tspan><tspan
         sodipodi:role="line"
         x="281.42859"
         y="828.43359"
         id="tspan4114">acceptance tests</tspan></text>
    <text
       xml:space="preserve"
       style="font-size:22px;font-style:normal;font-weight:normal;line-height:125%;letter-spacing:0px;word-spacing:0px;fill:#ffffff;fill-opacity:1;stroke:none;font-family:Sans"
       x="545.24872"
       y="794.68152"
       id="text4110-9"
       sodipodi:linespacing="125%"><tspan
         sodipodi:role="line"
         id="tspan4112-0"
         x="545.24872"
         y="794.68152">          user</tspan><tspan
         sodipodi:role="line"
         x="545.24872"
         y="822.18152"
         id="tspan4114-9">acceptance tests</tspan></text>
    <text
       xml:space="preserve"
       style="font-size:22px;font-style:normal;font-weight:normal;line-height:125%;letter-spacing:0px;word-spacing:0px;fill:#ffffff;fill-opacity:1;stroke:none;font-family:Sans"
       x="850"
       y="803.79077"
       id="text4140"
       sodipodi:linespacing="125%"><tspan
         sodipodi:role="line"
         id="tspan4142"
         x="850"
         y="803.79077">production</tspan></text>
    <text
       xml:space="preserve"
       style="font-size:22px;font-style:normal;font-weight:normal;line-height:125%;letter-spacing:0px;word-spacing:0px;fill:#ffffff;fill-opacity:1;stroke:none;font-family:Sans"
       x="-78.02224"
       y="1083.9429"
       id="text4144-4"
       sodipodi:linespacing="125%"
       transform="matrix(0.6628464,-0.7487554,0.7487554,0.6628464,0,0)"
       inkscape:transform-center-x="-23.875889"
       inkscape:transform-center-y="6.9501579"><tspan
         sodipodi:role="line"
         id="tspan4146-3"
         x="-78.02224"
         y="1083.9429">to production</tspan></text>
    <text
       xml:space="preserve"
       style="font-size:22px;font-style:normal;font-weight:normal;line-height:125%;letter-spacing:0px;word-spacing:0px;fill:#ffffff;fill-opacity:1;stroke:none;font-family:Sans"
       x="-249.93282"
       y="887.46198"
       id="text4144-4-2"
       sodipodi:linespacing="125%"
       transform="matrix(0.6628464,-0.7487554,0.7487554,0.6628464,0,0)"
       inkscape:transform-center-x="-23.875889"
       inkscape:transform-center-y="6.9501579"><tspan
         sodipodi:role="line"
         id="tspan4146-3-1"
         x="-249.93282"
         y="887.46198">to staging</tspan></text>
    <text
       xml:space="preserve"
       style="font-size:22px;font-style:normal;font-weight:normal;line-height:125%;letter-spacing:0px;word-spacing:0px;fill:#ffffff;fill-opacity:1;stroke:none;font-family:Sans"
       x="-441.36896"
       y="690.61133"
       id="text4144-4-7"
       sodipodi:linespacing="125%"
       transform="matrix(0.6628464,-0.7487554,0.7487554,0.6628464,0,0)"
       inkscape:transform-center-x="-23.875889"
       inkscape:transform-center-y="6.9501579"><tspan
         sodipodi:role="line"
         id="tspan4146-3-9"
         x="-441.36896"
         y="690.61133">to QA</tspan></text>
  </g>
</svg>
