<?xml version="1.0" encoding="UTF-8" standalone="no"?>
<!-- Created with Inkscape (http://www.inkscape.org/) -->

<svg
   xmlns:dc="http://purl.org/dc/elements/1.1/"
   xmlns:cc="http://creativecommons.org/ns#"
   xmlns:rdf="http://www.w3.org/1999/02/22-rdf-syntax-ns#"
   xmlns:svg="http://www.w3.org/2000/svg"
   xmlns="http://www.w3.org/2000/svg"
   xmlns:sodipodi="http://sodipodi.sourceforge.net/DTD/sodipodi-0.dtd"
   xmlns:inkscape="http://www.inkscape.org/namespaces/inkscape"
   width="1052.3622"
   height="744.09448"
   id="svg2"
   version="1.1"
   inkscape:version="0.48.4 r9939"
   sodipodi:docname="ci.svg">
  <defs
     id="defs4" />
  <sodipodi:namedview
     id="base"
     pagecolor="#000000"
     bordercolor="#666666"
     borderopacity="1.0"
     inkscape:pageopacity="0.45882353"
     inkscape:pageshadow="2"
     inkscape:zoom="0.7"
     inkscape:cx="403.02455"
     inkscape:cy="394.63057"
     inkscape:document-units="px"
     inkscape:current-layer="layer1"
     showgrid="false"
     inkscape:window-width="1440"
     inkscape:window-height="839"
     inkscape:window-x="0"
     inkscape:window-y="27"
     inkscape:window-maximized="1" />
  <metadata
     id="metadata7">
    <rdf:RDF>
      <cc:Work
         rdf:about="">
        <dc:format>image/svg+xml</dc:format>
        <dc:type
           rdf:resource="http://purl.org/dc/dcmitype/StillImage" />
        <dc:title></dc:title>
      </cc:Work>
    </rdf:RDF>
  </metadata>
  <g
     inkscape:label="Layer 1"
     inkscape:groupmode="layer"
     id="layer1"
     transform="translate(0,-308.2677)">
    <path
       style="fill:none;stroke:#ffffff;stroke-width:2.5;stroke-linecap:butt;stroke-linejoin:miter;stroke-opacity:1;stroke-miterlimit:4;stroke-dasharray:none"
       d="m 178.66968,738.17208 c 0,-13.80952 0,-27.61905 0,-41.42857 0,-10 0,-20 0,-30 0,-2.38095 0,-4.76191 0,-7.14286 0,-1.90476 -0.37355,-3.84651 0,-5.71428 0.13207,-0.66036 1.26524,-0.77525 1.42857,-1.42857 0.31806,-1.27224 0,-8.1029 0,-10 0,-0.4762 0,-0.95239 0,-1.42858 0,-0.47619 -0.42591,-1.21561 0,-1.42857 0.85184,-0.42592 1.90477,0 2.85715,0 3.1752,0 6.95951,0.43436 10,0 1.49071,-0.21296 2.78908,-1.26228 4.28571,-1.42857 2.83967,-0.31552 5.71429,0 8.57143,0 2.38095,0 4.7619,0 7.14286,0 10,0 20,0 30,0 7.61904,0 15.23809,0 22.85714,0 3.80952,0 7.61905,0 11.42857,0 0.95238,0 1.92326,0.18678 2.85714,0 10.15455,-2.03091 -2.35797,-1.42857 10,-1.42857 6.66667,0 13.33334,0 20,0 2.38096,0 4.76191,0 7.14286,0 0.95238,0 1.92326,0.18678 2.85714,0 1.47661,-0.29532 2.80036,-1.18101 4.28572,-1.42857 2.34856,-0.39143 4.7619,0 7.14286,0 3.80952,0 7.61904,0 11.42857,0 8.09524,0 16.19047,0 24.28571,0 1.42857,0 2.85714,0 4.28572,0 0.47619,0 1.09185,-0.33672 1.42857,0 0.67343,0.67343 -0.30117,1.95363 0,2.85714 4.04692,8.09384 -0.5324,-2.12959 1.42857,5.71429 0.25825,1.033 1.17032,1.82414 1.42857,2.85714 0.28093,1.12374 0,7.08582 0,8.57143 0,0.47619 -0.11549,0.9666 0,1.42857 0.36522,1.46088 1.18101,2.80036 1.42857,4.28571 0.23486,1.40914 0,2.85715 0,4.28572 0,3.80952 0,7.61905 0,11.42857 0,8.09524 0,16.19048 0,24.28571 0,8.09524 0,16.19048 0,24.28572 0,1.90476 0,3.80952 0,5.71428 0,0.47619 0.47619,1.42858 0,1.42858 -0.47619,0 0.47619,-1.42858 0,-1.42858 -0.67343,0 -0.82623,1.12741 -1.42857,1.42858 -0.42592,0.21295 -0.95238,0 -1.42857,0 -0.47619,0 -0.95238,0 -1.42857,0 -2.38096,0 -4.76191,0 -7.14286,0 -4.28571,0 -8.57143,0 -12.85714,0 -1.42857,0 -2.85715,0 -4.28572,0 -0.95238,0 -1.92325,0.18677 -2.85714,0 -1.4766,-0.29533 -2.80036,-1.18102 -4.28571,-1.42858 -1.40914,-0.23485 -2.85715,0 -4.28572,0 -4.28571,0 -8.57143,0 -12.85714,0 -1.42857,0 -2.8998,0.34648 -4.28572,0 -0.65332,-0.16333 -0.78969,-1.21561 -1.42857,-1.42857 -0.9035,-0.30117 -1.90476,0 -2.85714,0 -0.95238,0 -1.90476,0 -2.85714,0 -2.85715,0 -5.71429,0 -8.57143,0 -5.71429,0 -11.42857,0 -17.14286,0 -1.09059,0 -7.67136,-0.30002 -8.57143,0 -1.01015,0.33672 -1.82414,1.17032 -2.85714,1.42857 -1.08638,0.2716 -5.94659,0 -7.14286,0 -6.19047,0 -12.38095,0 -18.57143,0 -1.04611,0 -7.15244,-0.28379 -8.57142,0 -1.47661,0.29532 -2.80911,1.13325 -4.28572,1.42858 -0.93388,0.18677 -1.90476,0 -2.85714,0 -2.85714,0 -5.71429,0 -8.57143,0 -1.90476,0 -3.80952,0 -5.71429,0 -0.95238,0 -1.90476,0 -2.85714,0 -0.47619,0 -1.00265,-0.21296 -1.42857,0 -0.60234,0.30116 -0.82623,1.1274 -1.42857,1.42857 -0.42592,0.21296 -0.95238,0 -1.42857,0 -0.47619,0 -0.95238,0 -1.42857,0 -3.80953,0 -7.61905,0 -11.42858,0 -0.98646,0 -5.27994,-0.21717 -5.71428,0 -0.60234,0.30117 -0.82623,1.1274 -1.42857,1.42857 -0.56642,0.28321 -3.99366,-0.29205 -4.28572,0 -0.33671,0.33672 0.33672,1.09185 0,1.42857 -0.11404,0.11404 -2.2862,-0.0952 -2.85714,0 -2.39507,0.39918 -4.7619,0.95238 -7.14286,1.42857 z"
       id="path2987"
       inkscape:connector-curvature="0" />
    <path
       style="fill:none;stroke:#ffffff;stroke-width:2.5;stroke-linecap:butt;stroke-linejoin:miter;stroke-opacity:1;stroke-miterlimit:4;stroke-dasharray:none"
       d="m 420.78972,542.54478 c 0,-13.80952 0,-27.61905 0,-41.42857 0,-10 0,-20 0,-30 0,-2.38095 0,-4.76191 0,-7.14286 0,-1.90476 -0.37355,-3.84651 0,-5.71428 0.13207,-0.66036 1.26524,-0.77525 1.42857,-1.42857 0.31806,-1.27224 0,-8.1029 0,-10 0,-0.4762 0,-0.95239 0,-1.42858 0,-0.47619 -0.42591,-1.21561 0,-1.42857 0.85184,-0.42592 1.90477,0 2.85715,0 3.1752,0 6.95951,0.43436 10,0 1.49071,-0.21296 2.78908,-1.26228 4.28571,-1.42857 2.83967,-0.31552 5.71429,0 8.57143,0 2.38095,0 4.7619,0 7.14286,0 10,0 20,0 30,0 7.61904,0 15.23809,0 22.85714,0 3.80952,0 7.61905,0 11.42857,0 0.95238,0 1.92326,0.18678 2.85714,0 10.15455,-2.03091 -2.35797,-1.42857 10,-1.42857 6.66667,0 13.33334,0 20,0 2.38096,0 4.76191,0 7.14286,0 0.95238,0 1.92326,0.18678 2.85714,0 1.47661,-0.29532 2.80036,-1.18101 4.28572,-1.42857 2.34856,-0.39143 4.7619,0 7.14286,0 3.80952,0 7.61904,0 11.42857,0 8.09524,0 16.19047,0 24.28571,0 1.42857,0 2.85714,0 4.28572,0 0.47619,0 1.09185,-0.33672 1.42857,0 0.67343,0.67343 -0.30117,1.95363 0,2.85714 4.04692,8.09384 -0.5324,-2.12959 1.42857,5.71429 0.25825,1.033 1.17032,1.82414 1.42857,2.85714 0.28093,1.12374 0,7.08582 0,8.57143 0,0.47619 -0.11549,0.9666 0,1.42857 0.36522,1.46088 1.18101,2.80036 1.42857,4.28571 0.23486,1.40914 0,2.85715 0,4.28572 0,3.80952 0,7.61905 0,11.42857 0,8.09524 0,16.19048 0,24.28571 0,8.09524 0,16.19048 0,24.28572 0,1.90476 0,3.80952 0,5.71428 0,0.47619 0.47619,1.42858 0,1.42858 -0.47619,0 0.47619,-1.42858 0,-1.42858 -0.67343,0 -0.82623,1.12741 -1.42857,1.42858 -0.42592,0.21295 -0.95238,0 -1.42857,0 -0.47619,0 -0.95238,0 -1.42857,0 -2.38096,0 -4.76191,0 -7.14286,0 -4.28571,0 -8.57143,0 -12.85714,0 -1.42857,0 -2.85715,0 -4.28572,0 -0.95238,0 -1.92325,0.18677 -2.85714,0 -1.4766,-0.29533 -2.80036,-1.18102 -4.28571,-1.42858 -1.40914,-0.23485 -2.85715,0 -4.28572,0 -4.28571,0 -8.57143,0 -12.85714,0 -1.42857,0 -2.8998,0.34648 -4.28572,0 -0.65332,-0.16333 -0.78969,-1.21561 -1.42857,-1.42857 -0.9035,-0.30117 -1.90476,0 -2.85714,0 -0.95238,0 -1.90476,0 -2.85714,0 -2.85715,0 -5.71429,0 -8.57143,0 -5.71429,0 -11.42857,0 -17.14286,0 -1.09059,0 -7.67136,-0.30002 -8.57143,0 -1.01015,0.33672 -1.82414,1.17032 -2.85714,1.42857 -1.08638,0.2716 -5.94659,0 -7.14286,0 -6.19047,0 -12.38095,0 -18.57143,0 -1.04611,0 -7.15244,-0.28379 -8.57142,0 -1.47661,0.29532 -2.80911,1.13325 -4.28572,1.42858 -0.93388,0.18677 -1.90476,0 -2.85714,0 -2.85714,0 -5.71429,0 -8.57143,0 -1.90476,0 -3.80952,0 -5.71429,0 -0.95238,0 -1.90476,0 -2.85714,0 -0.47619,0 -1.00265,-0.21296 -1.42857,0 -0.60234,0.30116 -0.82623,1.1274 -1.42857,1.42857 -0.42592,0.21296 -0.95238,0 -1.42857,0 -0.47619,0 -0.95238,0 -1.42857,0 -3.80953,0 -7.61905,0 -11.42858,0 -0.98646,0 -5.27994,-0.21717 -5.71428,0 -0.60234,0.30117 -0.82623,1.1274 -1.42857,1.42857 -0.56642,0.28321 -3.99366,-0.29205 -4.28572,0 -0.33671,0.33672 0.33672,1.09185 0,1.42857 -0.11404,0.11404 -2.2862,-0.0952 -2.85714,0 -2.39507,0.39918 -4.7619,0.95238 -7.14286,1.42857 z"
       id="path2987-2"
       inkscape:connector-curvature="0" />
    <path
       style="fill:none;stroke:#ffffff;stroke-width:2.5;stroke-linecap:butt;stroke-linejoin:miter;stroke-opacity:1;stroke-miterlimit:4;stroke-dasharray:none"
       d="m 675.07545,731.1162 c 0,-13.80952 0,-27.61905 0,-41.42857 0,-10 0,-20 0,-30 0,-2.38095 0,-4.76191 0,-7.14286 0,-1.90476 -0.37355,-3.84651 0,-5.71428 0.13207,-0.66036 1.26524,-0.77525 1.42857,-1.42857 0.31806,-1.27224 0,-8.1029 0,-10 0,-0.4762 0,-0.95239 0,-1.42858 0,-0.47619 -0.42591,-1.21561 0,-1.42857 0.85184,-0.42592 1.90477,0 2.85715,0 3.1752,0 6.95951,0.43436 10,0 1.49071,-0.21296 2.78908,-1.26228 4.28571,-1.42857 2.83967,-0.31552 5.71429,0 8.57143,0 2.38095,0 4.7619,0 7.14286,0 10,0 20,0 30,0 7.61904,0 15.23809,0 22.85714,0 3.80952,0 7.61905,0 11.42857,0 0.95238,0 1.92326,0.18678 2.85714,0 10.15455,-2.03091 -2.35797,-1.42857 10,-1.42857 6.66667,0 13.33334,0 20,0 2.38096,0 4.76191,0 7.14286,0 0.95238,0 1.92326,0.18678 2.85714,0 1.47661,-0.29532 2.80036,-1.18101 4.28572,-1.42857 2.34856,-0.39143 4.7619,0 7.14286,0 3.80952,0 7.61904,0 11.42857,0 8.09524,0 16.19047,0 24.28571,0 1.42857,0 2.85714,0 4.28572,0 0.47619,0 1.09185,-0.33672 1.42857,0 0.67343,0.67343 -0.30117,1.95363 0,2.85714 4.04692,8.09384 -0.5324,-2.12959 1.42857,5.71429 0.25825,1.033 1.17032,1.82414 1.42857,2.85714 0.28093,1.12374 0,7.08582 0,8.57143 0,0.47619 -0.11549,0.9666 0,1.42857 0.36522,1.46088 1.18101,2.80036 1.42857,4.28571 0.23486,1.40914 0,2.85715 0,4.28572 0,3.80952 0,7.61905 0,11.42857 0,8.09524 0,16.19048 0,24.28571 0,8.09524 0,16.19048 0,24.28572 0,1.90476 0,3.80952 0,5.71428 0,0.47619 0.47619,1.42858 0,1.42858 -0.47619,0 0.47619,-1.42858 0,-1.42858 -0.67343,0 -0.82623,1.12741 -1.42857,1.42858 -0.42592,0.21295 -0.95238,0 -1.42857,0 -0.47619,0 -0.95238,0 -1.42857,0 -2.38096,0 -4.76191,0 -7.14286,0 -4.28571,0 -8.57143,0 -12.85714,0 -1.42857,0 -2.85715,0 -4.28572,0 -0.95238,0 -1.92325,0.18677 -2.85714,0 -1.4766,-0.29533 -2.80036,-1.18102 -4.28571,-1.42858 -1.40914,-0.23485 -2.85715,0 -4.28572,0 -4.28571,0 -8.57143,0 -12.85714,0 -1.42857,0 -2.8998,0.34648 -4.28572,0 -0.65332,-0.16333 -0.78969,-1.21561 -1.42857,-1.42857 -0.9035,-0.30117 -1.90476,0 -2.85714,0 -0.95238,0 -1.90476,0 -2.85714,0 -2.85715,0 -5.71429,0 -8.57143,0 -5.71429,0 -11.42857,0 -17.14286,0 -1.09059,0 -7.67136,-0.30002 -8.57143,0 -1.01015,0.33672 -1.82414,1.17032 -2.85714,1.42857 -1.08638,0.2716 -5.94659,0 -7.14286,0 -6.19047,0 -12.38095,0 -18.57143,0 -1.04611,0 -7.15244,-0.28379 -8.57142,0 -1.47661,0.29532 -2.80911,1.13325 -4.28572,1.42858 -0.93388,0.18677 -1.90476,0 -2.85714,0 -2.85714,0 -5.71429,0 -8.57143,0 -1.90476,0 -3.80952,0 -5.71429,0 -0.95238,0 -1.90476,0 -2.85714,0 -0.47619,0 -1.00265,-0.21296 -1.42857,0 -0.60234,0.30116 -0.82623,1.1274 -1.42857,1.42857 -0.42592,0.21296 -0.95238,0 -1.42857,0 -0.47619,0 -0.95238,0 -1.42857,0 -3.80953,0 -7.61905,0 -11.42858,0 -0.98646,0 -5.27994,-0.21717 -5.71428,0 -0.60234,0.30117 -0.82623,1.1274 -1.42857,1.42857 -0.56642,0.28321 -3.99366,-0.29205 -4.28572,0 -0.33671,0.33672 0.33672,1.09185 0,1.42857 -0.11404,0.11404 -2.2862,-0.0952 -2.85714,0 -2.39507,0.39918 -4.7619,0.95238 -7.14286,1.42857 z"
       id="path2987-3"
       inkscape:connector-curvature="0" />
    <path
       style="fill:none;stroke:#ffffff;stroke-width:2.5;stroke-linecap:butt;stroke-linejoin:miter;stroke-opacity:1;stroke-miterlimit:4;stroke-dasharray:none"
       d="m 420.78973,921.11621 c 0,-13.80952 0,-27.61905 0,-41.42857 0,-10 0,-20 0,-30 0,-2.38095 0,-4.76191 0,-7.14286 0,-1.90476 -0.37355,-3.84651 0,-5.71428 0.13207,-0.66036 1.26524,-0.77525 1.42857,-1.42857 0.31806,-1.27224 0,-8.1029 0,-10 0,-0.4762 0,-0.95239 0,-1.42858 0,-0.47619 -0.42591,-1.21561 0,-1.42857 0.85184,-0.42592 1.90477,0 2.85715,0 3.1752,0 6.95951,0.43436 10,0 1.49071,-0.21296 2.78908,-1.26228 4.28571,-1.42857 2.83967,-0.31552 5.71429,0 8.57143,0 2.38095,0 4.7619,0 7.14286,0 10,0 20,0 30,0 7.61904,0 15.23809,0 22.85714,0 3.80952,0 7.61905,0 11.42857,0 0.95238,0 1.92326,0.18678 2.85714,0 10.15455,-2.03091 -2.35797,-1.42857 10,-1.42857 6.66667,0 13.33334,0 20,0 2.38096,0 4.76191,0 7.14286,0 0.95238,0 1.92326,0.18678 2.85714,0 1.47661,-0.29532 2.80036,-1.18101 4.28572,-1.42857 2.34856,-0.39143 4.7619,0 7.14286,0 3.80952,0 7.61904,0 11.42857,0 8.09524,0 16.19047,0 24.28571,0 1.42857,0 2.85714,0 4.28572,0 0.47619,0 1.09185,-0.33672 1.42857,0 0.67343,0.67343 -0.30117,1.95363 0,2.85714 4.04692,8.09384 -0.5324,-2.12959 1.42857,5.71429 0.25825,1.033 1.17032,1.82414 1.42857,2.85714 0.28093,1.12374 0,7.08582 0,8.57143 0,0.47619 -0.11549,0.9666 0,1.42857 0.36522,1.46088 1.18101,2.80036 1.42857,4.28571 0.23486,1.40914 0,2.85715 0,4.28572 0,3.80952 0,7.61905 0,11.42857 0,8.09524 0,16.19048 0,24.28571 0,8.09524 0,16.19048 0,24.28572 0,1.90476 0,3.80952 0,5.71428 0,0.47619 0.47619,1.42858 0,1.42858 -0.47619,0 0.47619,-1.42858 0,-1.42858 -0.67343,0 -0.82623,1.12741 -1.42857,1.42858 -0.42592,0.21295 -0.95238,0 -1.42857,0 -0.47619,0 -0.95238,0 -1.42857,0 -2.38096,0 -4.76191,0 -7.14286,0 -4.28571,0 -8.57143,0 -12.85714,0 -1.42857,0 -2.85715,0 -4.28572,0 -0.95238,0 -1.92325,0.18677 -2.85714,0 -1.4766,-0.29533 -2.80036,-1.18102 -4.28571,-1.42858 -1.40914,-0.23485 -2.85715,0 -4.28572,0 -4.28571,0 -8.57143,0 -12.85714,0 -1.42857,0 -2.8998,0.34648 -4.28572,0 -0.65332,-0.16333 -0.78969,-1.21561 -1.42857,-1.42857 -0.9035,-0.30117 -1.90476,0 -2.85714,0 -0.95238,0 -1.90476,0 -2.85714,0 -2.85715,0 -5.71429,0 -8.57143,0 -5.71429,0 -11.42857,0 -17.14286,0 -1.09059,0 -7.67136,-0.30002 -8.57143,0 -1.01015,0.33672 -1.82414,1.17032 -2.85714,1.42857 -1.08638,0.2716 -5.94659,0 -7.14286,0 -6.19047,0 -12.38095,0 -18.57143,0 -1.04611,0 -7.15244,-0.28379 -8.57142,0 -1.47661,0.29532 -2.80911,1.13325 -4.28572,1.42858 -0.93388,0.18677 -1.90476,0 -2.85714,0 -2.85714,0 -5.71429,0 -8.57143,0 -1.90476,0 -3.80952,0 -5.71429,0 -0.95238,0 -1.90476,0 -2.85714,0 -0.47619,0 -1.00265,-0.21296 -1.42857,0 -0.60234,0.30116 -0.82623,1.1274 -1.42857,1.42857 -0.42592,0.21296 -0.95238,0 -1.42857,0 -0.47619,0 -0.95238,0 -1.42857,0 -3.80953,0 -7.61905,0 -11.42858,0 -0.98646,0 -5.27994,-0.21717 -5.71428,0 -0.60234,0.30117 -0.82623,1.1274 -1.42857,1.42857 -0.56642,0.28321 -3.99366,-0.29205 -4.28572,0 -0.33671,0.33672 0.33672,1.09185 0,1.42857 -0.11404,0.11404 -2.2862,-0.0952 -2.85714,0 -2.39507,0.39918 -4.7619,0.95238 -7.14286,1.42857 z"
       id="path2987-25"
       inkscape:connector-curvature="0" />
    <path
       style="fill:none;stroke:#ffffff;stroke-width:2.5;stroke-linecap:butt;stroke-linejoin:miter;stroke-opacity:1;stroke-miterlimit:4;stroke-dasharray:none"
       d="m 391.52682,891.02922 c -29.89408,-13.91626 1.09867,1.5384 -14.28571,-2.85714 -2.04765,-0.58504 -3.69398,-2.18371 -5.71429,-2.85714 -0.9035,-0.30117 -1.91772,0.15657 -2.85714,0 -1.93667,-0.32278 -3.85166,-0.8077 -5.71429,-1.42857 -5.13588,-1.71197 -10.97928,-4.43714 -15.71428,-7.14286 -1.49071,-0.85184 -2.795,-2.00531 -4.28572,-2.85714 -1.849,-1.05658 -3.88817,-1.76148 -5.71428,-2.85715 -0.57747,-0.34648 -0.88982,-1.02451 -1.42857,-1.42857 -2.74709,-2.06031 -5.82434,-3.65397 -8.57143,-5.71428 -0.53875,-0.40406 -0.95238,-0.95238 -1.42857,-1.42857 -1.90476,-1.90477 -3.80953,-3.80953 -5.71429,-5.71429 -2.38095,-2.38095 -4.7619,-4.76191 -7.14286,-7.14286 -0.95238,-0.95238 -1.90476,-1.90476 -2.85714,-2.85714 -0.47619,-0.47619 -1.05502,-0.86824 -1.42857,-1.42857 -0.59064,-0.88596 -0.88074,-1.94409 -1.42857,-2.85714 -1.22256,-2.0376 -3.46934,-4.69372 -4.28572,-7.14286 -0.15058,-0.45176 0.21296,-1.00266 0,-1.42857 -2.80926,-5.61853 -3.08879,-2.58684 -4.28571,-8.57143 -0.18678,-0.93389 0.23099,-1.9332 0,-2.85714 -0.25825,-1.03301 -1.03312,-1.86851 -1.42857,-2.85715 -0.55926,-1.39814 -0.75514,-2.93884 -1.42857,-4.28571 -0.30117,-0.60234 -1.21562,-0.7897 -1.42857,-1.42857 -0.30117,-0.90351 0.23098,-1.9332 0,-2.85715 -0.51651,-2.066 -2.34065,-3.64828 -2.85715,-5.71428 -0.23098,-0.92395 0.23099,-1.9332 0,-2.85714 -0.25825,-1.03301 -1.21975,-1.81303 -1.42857,-2.85715 0,-8.12428 0.63888,-0.94051 -1.42857,-7.14285 -0.15058,-0.45176 0,-0.95239 0,-1.42858 0,-1.42857 0.28017,-2.88488 0,-4.28571 -0.20882,-1.04412 -1.09185,-1.84699 -1.42857,-2.85714 -0.15059,-0.45176 0,-0.95238 0,-1.42857 0,-2.38096 0,-4.76191 0,-7.14286 0,-4.76191 0,-9.52381 0,-14.28572 0,-2.85714 0,-5.71428 0,-8.57142 0,-0.4762 0.33672,-1.09186 0,-1.42858 -0.33672,-0.33671 -0.95238,0 -1.42857,0 -0.95238,0 -1.95364,-0.30117 -2.85715,0 -0.63887,0.21296 -0.95238,0.95238 -1.42857,1.42858 -0.95238,0.95238 -1.77964,2.04902 -2.85714,2.85714 -0.85184,0.63887 -1.97118,0.83793 -2.85714,1.42857 -1.23272,0.82181 -3.16988,3.16988 -4.28572,4.28571 -2.38095,2.38096 -4.7619,4.76191 -7.14285,7.14286 -4.73798,4.73798 0.67343,-1.34687 -1.42858,2.85714 -2.97268,5.94538 0.0986,-1.52719 -2.85714,1.42858 -0.33672,0.33671 0,0.95238 0,1.42857 0,0.47619 -0.33672,1.76529 0,1.42857 0.75292,-0.75293 0.7897,-2.00531 1.42857,-2.85714 2.18832,-2.91776 6.30334,-5.73632 8.57143,-8.57143 0.66517,-0.83147 0.83793,-1.97118 1.42857,-2.85715 0.74711,-1.12066 2.11004,-1.73648 2.85715,-2.85714 0.86998,-1.30498 1.2194,-3.46684 2.85714,-4.28571 0.36953,-0.18477 8.04307,-0.17612 8.57143,0 1.01015,0.33671 1.82414,1.17032 2.85714,1.42857 0.69599,0.174 4.9589,-0.3777 5.71429,0 0.60233,0.30117 0.82623,1.1274 1.42857,1.42857 0.42591,0.21296 1.09185,-0.33672 1.42857,0 0.33672,0.33672 -0.21296,1.00265 0,1.42857 2.97268,5.94537 -0.0986,-1.52719 2.85714,1.42857 0.33672,0.33672 -0.21296,1.00266 0,1.42857 2.83508,5.67016 0.45152,-6.31382 2.85714,5.71429 0.18678,0.93389 -0.23098,1.9332 0,2.85714 1.72463,6.89849 0.67889,-0.0708 2.85715,4.28572 0.21296,0.42591 0,0.95238 0,1.42857"
       id="path3023"
       inkscape:connector-curvature="0" />
    <path
       style="fill:none;stroke:#ffffff;stroke-width:2.5;stroke-linecap:butt;stroke-linejoin:miter;stroke-opacity:1;stroke-miterlimit:4;stroke-dasharray:none"
       d="m 263.36503,600.18772 c 13.69661,-29.99536 -1.5303,1.10992 2.75228,-14.30629 0.57,-2.05188 2.15655,-3.7099 2.81514,-5.73509 0.29454,-0.90569 -0.17063,-1.91652 -0.021,-2.85706 0.30857,-1.93899 0.77943,-3.85749 1.38662,-5.72462 1.67425,-5.1483 4.35649,-11.01153 7.0274,-15.76625 0.84088,-1.49692 1.98476,-2.80963 2.82563,-4.30656 1.04299,-1.8567 1.73291,-3.90099 2.81516,-5.73509 0.34224,-0.57999 1.01796,-0.89731 1.41805,-1.43901 2.04011,-2.76213 3.61115,-5.85098 5.65126,-8.61311 0.40009,-0.5417 0.94537,-0.95934 1.41805,-1.43901 1.89075,-1.91868 3.78148,-3.83737 5.67222,-5.75605 2.36342,-2.39835 4.72685,-4.7967 7.09027,-7.19506 0.94537,-0.95935 1.89074,-1.91869 2.83611,-2.87803 0.47268,-0.47967 0.86048,-1.06136 1.41805,-1.43901 0.88161,-0.59712 1.93758,-0.89497 2.84659,-1.44949 2.02858,-1.23747 4.66814,-3.50367 7.11123,-4.33799 0.45064,-0.15389 1.00419,0.2056 1.42853,-0.0105 5.59777,-2.8504 2.56411,-3.10768 8.53976,-4.34847 0.9325,-0.19363 1.93485,0.2168 2.85707,-0.021 1.03108,-0.26582 1.86088,-1.0468 2.84659,-1.44949 1.394,-0.5695 2.93322,-0.77667 4.27512,-1.45996 0.60011,-0.30558 0.78076,-1.22138 1.41805,-1.43901 0.90128,-0.30779 1.93484,0.21679 2.85707,-0.021 2.06216,-0.53165 3.63102,-2.36735 5.69317,-2.89899 0.92223,-0.23775 1.93484,0.2168 2.85706,-0.021 1.03109,-0.26582 1.80404,-1.23301 2.8466,-1.44949 8.12406,-0.0596 0.94517,0.63197 7.13218,-1.48092 0.45064,-0.15389 0.95236,-0.007 1.42854,-0.0105 1.42853,-0.0105 2.88686,0.259 4.28559,-0.0314 1.04256,-0.21647 1.83894,-1.10537 2.84659,-1.44949 0.45064,-0.1539 0.95235,-0.007 1.42853,-0.0105 2.3809,-0.0175 4.76178,-0.0349 7.14267,-0.0524 4.76178,-0.0349 9.52355,-0.0699 14.28533,-0.10479 2.85707,-0.021 5.71413,-0.0419 8.57119,-0.0629 0.47619,-0.003 1.0943,0.3287 1.42855,-0.0105 0.33423,-0.33918 -0.007,-0.95235 -0.0105,-1.42853 -0.007,-0.95235 0.28683,-1.9558 -0.021,-2.85707 -0.21764,-0.63729 -0.95934,-0.94537 -1.43902,-1.41806 -0.95934,-0.94536 -2.06202,-1.76456 -2.87802,-2.8361 -0.6451,-0.84713 -0.85237,-1.96498 -1.44949,-2.84659 -0.83083,-1.22665 -3.19305,-3.14654 -4.31703,-4.25416 -2.39836,-2.36342 -4.79671,-4.72685 -7.19506,-7.09027 -4.77261,-4.7031 1.35177,0.66353 -2.86755,-1.40758 -5.96702,-2.92899 1.52788,0.0874 -1.4495,-2.84659 -0.33917,-0.33424 -0.95235,0.007 -1.42853,0.0105 -0.47617,0.003 -1.76771,-0.32376 -1.42853,0.0105 0.75843,0.74738 2.01105,0.77497 2.86754,1.40758 2.93374,2.16685 5.78241,6.26109 8.63408,8.50832 0.83632,0.65906 1.97727,0.82345 2.86755,1.40758 1.12611,0.73887 1.75191,2.09724 2.87802,2.83611 1.31132,0.86039 3.47569,1.19394 4.30655,2.82563 0.18748,0.36816 0.23511,8.04156 0.0629,8.5712 -0.32929,1.01259 -1.15691,1.83267 -1.40757,2.86754 -0.16889,0.69725 0.41406,4.956 0.0419,5.71414 -0.29674,0.60452 -1.1213,0.83447 -1.41805,1.43901 -0.20983,0.42746 0.34472,1.08935 0.0105,1.42853 -0.33424,0.33918 -1.00418,-0.2056 -1.42853,0.0105 -5.92341,3.01621 1.52642,-0.1098 -1.40758,2.86754 -0.33424,0.33918 -1.00419,-0.2056 -1.42853,0.0105 -5.64921,2.87659 6.31697,0.40519 -5.69318,2.89897 -0.93249,0.19363 -1.93484,-0.21679 -2.85706,0.021 -6.88565,1.77519 0.0758,0.67835 -4.26465,2.88851 -0.42433,0.21608 -0.95235,0.007 -1.42853,0.0105"
       id="path3023-7"
       inkscape:connector-curvature="0" />
    <path
       style="fill:none;stroke:#ffffff;stroke-width:2.5;stroke-linecap:butt;stroke-linejoin:miter;stroke-opacity:1;stroke-miterlimit:4;stroke-dasharray:none"
       d="m 642.32244,481.71368 c 32.26062,6.82428 -1.41698,-1.25136 14.56215,-0.43446 2.12681,0.10873 4.09096,1.29543 6.21104,1.49643 0.94812,0.0899 1.83316,-0.58454 2.78371,-0.64363 1.9596,-0.12178 3.9346,-0.0807 5.88922,0.10459 5.38953,0.511 11.69663,1.84977 16.91945,3.41928 1.64428,0.49414 3.17489,1.32413 4.81919,1.81825 2.03949,0.6129 4.18503,0.84032 6.21103,1.49645 0.64068,0.20749 1.09774,0.79773 1.71366,1.07004 3.14061,1.38851 6.49777,2.24798 9.63837,3.6365 0.61593,0.2723 1.14245,0.71335 1.71367,1.07003 2.2849,1.42673 4.5698,2.85344 6.85468,4.28015 2.85611,1.78339 5.71222,3.56679 8.56834,5.35018 1.14244,0.71335 2.28489,1.42671 3.42733,2.14007 0.57123,0.35667 1.2235,0.60825 1.71367,1.07003 0.77504,0.73014 1.29605,1.69572 2.03548,2.46189 1.65015,1.70981 4.43752,3.79153 5.78464,5.99381 0.24847,0.40623 0.0184,1.02486 0.32181,1.39185 4.00275,4.84126 3.59214,1.82453 6.10646,7.38566 0.39232,0.86783 0.21044,1.93554 0.64363,2.7837 0.48433,0.94827 1.42748,1.58775 2.03548,2.4619 0.85985,1.23621 1.39777,2.69319 2.3573,3.85373 0.42912,0.51901 1.36227,0.49556 1.71367,1.07004 0.49692,0.81245 0.21045,1.93553 0.64363,2.78371 0.96867,1.89652 3.10234,3.02722 4.07097,4.92377 0.43315,0.84818 0.21045,1.93553 0.64364,2.78369 0.48433,0.94827 1.59681,1.49166 2.03548,2.4619 1.83016,7.91545 -0.41059,1.06026 3.00093,6.63743 0.24847,0.40624 0.21455,0.92791 0.32182,1.39186 0.32181,1.39185 0.3769,2.87384 0.96544,4.17555 0.43863,0.97026 1.47986,1.55356 2.03548,2.46188 0.24847,0.40625 0.21455,0.92791 0.32182,1.39186 0.53636,2.31976 1.07273,4.63951 1.60908,6.95926 1.07272,4.63951 2.14544,9.27901 3.21816,13.91852 0.64363,2.7837 1.28727,5.5674 1.93089,8.3511 0.10728,0.46396 -0.0821,1.13964 0.32183,1.39186 0.40391,0.2522 0.92789,-0.21454 1.39185,-0.32182 0.92789,-0.21454 1.97127,-0.14666 2.78371,-0.64364 0.5745,-0.35135 0.71335,-1.14243 1.07003,-1.71366 0.71335,-1.14245 1.27231,-2.39726 2.14006,-3.42734 0.68603,-0.81434 1.73175,-1.26044 2.46189,-2.03548 1.0159,-1.07838 2.37432,-3.80248 3.21012,-5.141 1.78338,-2.85612 3.56677,-5.71223 5.35016,-8.56834 3.54887,-5.68353 -0.35271,1.46396 0.74823,-3.10552 1.55694,-6.46222 0.24797,1.51015 2.46188,-2.03549 0.25221,-0.40391 -0.21454,-0.9279 -0.32181,-1.39184 -0.10728,-0.46396 -0.0696,-1.79578 -0.32182,-1.39186 -0.56395,0.90319 -0.31766,2.13166 -0.74822,3.10551 -1.47478,3.33574 -4.84909,7.00884 -6.42022,10.28201 -0.46076,0.95995 -0.37233,2.10928 -0.7482,3.10553 -0.47547,1.26016 -1.66463,2.16718 -2.14009,3.42734 -0.55364,1.46741 -0.40707,3.65242 -1.81824,4.81918 -0.31843,0.26324 -7.79667,1.98347 -8.35113,1.93089 -1.06002,-0.1005 -2.04088,-0.72931 -3.10551,-0.74822 -0.71729,-0.0127 -4.74634,1.48509 -5.5674,1.28727 -0.6547,-0.15774 -1.05897,-0.91229 -1.71368,-1.07003 -0.46293,-0.11155 -0.98793,0.57401 -1.39184,0.32181 -0.40392,-0.25221 -0.0184,-1.02485 -0.32181,-1.39185 -4.2356,-5.12289 0.44009,1.46573 -3.10553,-0.74821 -0.40392,-0.25222 -0.0184,-1.02487 -0.32181,-1.39186 -4.03953,-4.88575 0.98241,6.25325 -4.07096,-4.92378 -0.39232,-0.86782 -0.21045,-1.93554 -0.64364,-2.7837 -3.23433,-6.33265 -0.64548,0.22192 -3.74916,-3.53192 -0.30345,-0.36698 -0.21454,-0.92791 -0.32181,-1.39186"
       id="path3023-8"
       inkscape:connector-curvature="0" />
    <path
       style="fill:none;stroke:#ffffff;stroke-width:2.5;stroke-linecap:butt;stroke-linejoin:miter;stroke-opacity:1;stroke-miterlimit:4;stroke-dasharray:none"
       d="m 788.65576,751.79964 c -16.54491,28.5234 1.63086,-0.95606 -4.12864,13.97137 -0.76658,1.98683 -2.50666,3.48293 -3.35881,5.43459 -0.3811,0.8728 -0.0163,1.92403 -0.25661,2.84559 -0.49542,1.89985 -1.15037,3.76355 -1.93602,5.56289 -2.16632,4.96136 -5.40529,10.53639 -8.52534,15.00924 -0.98229,1.40818 -2.24824,2.6036 -3.23051,4.01179 -1.21838,1.74663 -2.10357,3.71425 -3.35882,5.43458 -0.39695,0.54401 -1.10029,0.79421 -1.55111,1.29449 -2.2987,2.55094 -4.1623,5.47263 -6.46101,8.02357 -0.45081,0.50028 -1.03407,0.86299 -1.5511,1.29449 -2.06815,1.72599 -4.13628,3.45199 -6.20442,5.17798 -2.58517,2.15749 -5.17035,4.31497 -7.75552,6.47247 -1.03406,0.86299 -2.06813,1.72599 -3.1022,2.58898 -0.51703,0.4315 -0.95948,0.97278 -1.5511,1.29449 -0.93543,0.50868 -2.01533,0.70258 -2.9739,1.16619 -2.13916,1.03462 -4.98634,3.03376 -7.4989,3.62688 -0.46346,0.10939 -0.97949,-0.30216 -1.4228,-0.12831 -5.84813,2.29329 -2.8538,2.84398 -8.92171,3.49856 -0.94689,0.10215 -1.90464,-0.40368 -2.84559,-0.25661 -1.05203,0.16443 -1.95374,0.86113 -2.97391,1.16619 -1.44271,0.43143 -2.99478,0.48814 -4.39669,1.03788 -0.62696,0.24586 -0.89569,1.13978 -1.5511,1.29449 -0.92691,0.21881 -1.90464,-0.40367 -2.84561,-0.25661 -2.10404,0.32887 -3.84375,2.00353 -5.94779,2.33239 -0.94096,0.14706 -1.90464,-0.40369 -2.84559,-0.25661 -1.05203,0.16443 -1.91526,1.05198 -2.97391,1.16618 -8.09145,-0.72966 -0.87933,-0.72076 -7.24229,0.78128 -0.46346,0.10939 -0.94854,-0.0855 -1.42281,-0.12831 -1.42279,-0.1283 -2.84806,-0.53814 -4.26839,-0.38491 -1.05865,0.1142 -1.93759,0.92155 -2.97389,1.16619 -0.46346,0.1094 -0.94854,-0.0855 -1.4228,-0.12831 -2.37134,-0.21384 -4.74267,-0.42768 -7.11399,-0.64152 -4.74267,-0.42769 -9.48532,-0.85537 -14.22799,-1.28305 -2.84559,-0.25661 -5.69119,-0.51322 -8.53678,-0.76983 -0.47428,-0.0428 -1.05721,-0.43342 -1.42281,-0.12831 -0.36559,0.30512 -0.0855,0.94853 -0.1283,1.4228 -0.0855,0.94853 -0.47542,1.9187 -0.25661,2.8456 0.15472,0.65542 0.86299,1.03407 1.2945,1.55111 0.863,1.03406 1.8809,1.95647 2.58898,3.1022 0.55979,0.90577 0.65751,2.03847 1.16619,2.9739 0.70778,1.30154 2.87237,3.44176 3.88348,4.65331 2.15749,2.58517 4.31498,5.17034 6.47247,7.75551 4.29329,5.14436 -1.28095,-0.79168 2.71728,1.67941 5.65437,3.49464 -1.51216,-0.23536 1.1662,2.9739 0.30511,0.3656 0.94853,0.0855 1.4228,0.12831 0.47426,0.0428 1.72791,0.4939 1.42279,0.1283 -0.68226,-0.8175 -1.92628,-0.96661 -2.71728,-1.6794 -2.70943,-2.44153 -5.14702,-6.79307 -7.76696,-9.30662 -0.76837,-0.73716 -1.88796,-1.01159 -2.7173,-1.67941 -1.04903,-0.84474 -1.53996,-2.25747 -2.58899,-3.10221 -1.22157,-0.98367 -3.34331,-1.52584 -4.01178,-3.23051 -0.15083,-0.38463 0.54697,-8.02638 0.76983,-8.53679 0.42608,-0.97583 1.32942,-1.71166 1.67941,-2.71729 0.2358,-0.67755 0.0692,-4.97278 0.51322,-5.69119 0.35405,-0.57285 1.19705,-0.72164 1.5511,-1.2945 0.25035,-0.40506 -0.2373,-1.11768 0.1283,-1.42279 0.3656,-0.30512 0.97948,0.30215 1.4228,0.1283 6.18833,-2.42669 -1.52987,-0.039 1.67941,-2.71729 0.3656,-0.30511 0.97948,0.30216 1.42279,0.12831 5.90188,-2.31437 -6.24775,-1.01676 5.94781,-2.33238 0.94689,-0.10214 1.90464,0.40368 2.84559,0.25661 7.02551,-1.09808 -0.01,-0.6825 4.52501,-2.46068 0.44332,-0.17385 0.94853,0.0855 1.4228,0.1283"
       id="path3023-88"
       inkscape:connector-curvature="0" />
    <text
       xml:space="preserve"
       style="font-size:22px;font-style:normal;font-weight:normal;line-height:125%;letter-spacing:0px;word-spacing:0px;fill:#ffffff;fill-opacity:1;stroke:none;font-family:Sans"
       x="444.38397"
       y="481.02921"
       id="text3059"
       sodipodi:linespacing="125%"><tspan
         sodipodi:role="line"
         id="tspan3061"
         x="444.38397"
         y="481.02921"
         style="font-style:normal;font-variant:normal;font-weight:normal;font-stretch:normal;fill:#ffffff;fill-opacity:1;font-family:DejaVu Sans;-inkscape-font-specification:DejaVu Sans">sourcecode</tspan><tspan
         sodipodi:role="line"
         x="444.38397"
         y="508.52921"
         id="tspan3063"
         style="font-style:normal;font-variant:normal;font-weight:normal;font-stretch:normal;fill:#ffffff;fill-opacity:1;font-family:DejaVu Sans;-inkscape-font-specification:DejaVu Sans">management</tspan></text>
    <text
       xml:space="preserve"
       style="font-size:16px;font-style:normal;font-weight:normal;line-height:125%;letter-spacing:0px;word-spacing:0px;fill:#ffffff;fill-opacity:1;stroke:none;font-family:Sans"
       x="750.09821"
       y="691.02917"
       id="text3065"
       sodipodi:linespacing="125%"><tspan
         sodipodi:role="line"
         id="tspan3067"
         x="750.09821"
         y="691.02917"
         style="font-size:22px;font-style:normal;font-variant:normal;font-weight:normal;font-stretch:normal;fill:#ffffff;fill-opacity:1;font-family:DejaVu Sans;-inkscape-font-specification:DejaVu Sans">build</tspan></text>
    <text
       xml:space="preserve"
       style="font-size:40px;font-style:normal;font-weight:normal;line-height:125%;letter-spacing:0px;word-spacing:0px;fill:#ffffff;fill-opacity:1;stroke:none;font-family:Sans"
       x="481.52682"
       y="879.60065"
       id="text3069"
       sodipodi:linespacing="125%"><tspan
         sodipodi:role="line"
         id="tspan3071"
         x="481.52682"
         y="879.60065"
         style="font-size:22px;fill:#ffffff;fill-opacity:1">testing</tspan></text>
    <text
       xml:space="preserve"
       style="font-size:22px;font-style:normal;font-weight:normal;line-height:125%;letter-spacing:0px;word-spacing:0px;fill:#ffffff;fill-opacity:1;stroke:none;font-family:Sans"
       x="204.38397"
       y="696.74347"
       id="text3073"
       sodipodi:linespacing="125%"><tspan
         sodipodi:role="line"
         id="tspan3075"
         x="204.38397"
         y="696.74347">development</tspan></text>
    <text
       xml:space="preserve"
       style="font-size:22px;font-style:normal;font-weight:normal;line-height:125%;letter-spacing:0px;word-spacing:0px;fill:#ffffff;fill-opacity:1;stroke:none;font-family:Sans"
       x="-205.62567"
       y="620.38788"
       id="text3073-6"
       sodipodi:linespacing="125%"
       transform="matrix(0.70374048,-0.71045713,0.71045713,0.70374048,0,0)"><tspan
         sodipodi:role="line"
         id="tspan3075-8"
         x="-205.62567"
         y="620.38788">commit</tspan></text>
    <text
       xml:space="preserve"
       style="font-size:22px;font-style:normal;font-weight:normal;line-height:125%;letter-spacing:0px;word-spacing:0px;fill:#ffffff;fill-opacity:1;stroke:none;font-family:Sans"
       x="832.56213"
       y="-140.54622"
       id="text3073-0"
       sodipodi:linespacing="125%"
       transform="matrix(0.69455619,0.71943846,-0.71943846,0.69455619,0,0)"><tspan
         sodipodi:role="line"
         id="tspan3075-2"
         x="832.56213"
         y="-140.54622">initiate</tspan></text>
    <text
       xml:space="preserve"
       style="font-size:22px;font-style:normal;font-weight:normal;line-height:125%;letter-spacing:0px;word-spacing:0px;fill:#ffffff;fill-opacity:1;stroke:none;font-family:Sans"
       x="-78.133217"
       y="1091.7581"
       id="text3073-7"
       sodipodi:linespacing="125%"
       transform="matrix(0.70412913,-0.71007195,0.71007195,0.70412913,0,0)"><tspan
         sodipodi:role="line"
         id="tspan3075-26"
         x="-78.133217"
         y="1091.7581">test</tspan></text>
    <text
       xml:space="preserve"
       style="font-size:22px;font-style:normal;font-weight:normal;line-height:125%;letter-spacing:0px;word-spacing:0px;fill:#ffffff;fill-opacity:1;stroke:none;font-family:Sans"
       x="780.61768"
       y="360.12231"
       id="text3073-4"
       sodipodi:linespacing="125%"
       transform="matrix(0.72977113,0.68369152,-0.68369152,0.72977113,0,0)"><tspan
         sodipodi:role="line"
         id="tspan3075-4"
         x="780.61768"
         y="360.12231">reporting</tspan></text>
  </g>
</svg>
