<?xml version="1.0" encoding="UTF-8" standalone="no"?>
<!-- Created with Inkscape (http://www.inkscape.org/) -->

<svg
   xmlns:dc="http://purl.org/dc/elements/1.1/"
   xmlns:cc="http://creativecommons.org/ns#"
   xmlns:rdf="http://www.w3.org/1999/02/22-rdf-syntax-ns#"
   xmlns:svg="http://www.w3.org/2000/svg"
   xmlns="http://www.w3.org/2000/svg"
   xmlns:sodipodi="http://sodipodi.sourceforge.net/DTD/sodipodi-0.dtd"
   xmlns:inkscape="http://www.inkscape.org/namespaces/inkscape"
   width="1052.3622"
   height="744.09448"
   id="svg2"
   version="1.1"
   inkscape:version="0.48.4 r9939"
   sodipodi:docname="docker.svg">
  <defs
     id="defs4" />
  <sodipodi:namedview
     id="base"
     pagecolor="#000000"
     bordercolor="#666666"
     borderopacity="1.0"
     inkscape:pageopacity="0.45882353"
     inkscape:pageshadow="2"
     inkscape:zoom="0.7"
     inkscape:cx="127.24263"
     inkscape:cy="422.44213"
     inkscape:document-units="px"
     inkscape:current-layer="layer1"
     showgrid="false"
     inkscape:window-width="1440"
     inkscape:window-height="839"
     inkscape:window-x="0"
     inkscape:window-y="27"
     inkscape:window-maximized="1" />
  <metadata
     id="metadata7">
    <rdf:RDF>
      <cc:Work
         rdf:about="">
        <dc:format>image/svg+xml</dc:format>
        <dc:type
           rdf:resource="http://purl.org/dc/dcmitype/StillImage" />
        <dc:title></dc:title>
      </cc:Work>
    </rdf:RDF>
  </metadata>
  <g
     inkscape:label="Layer 1"
     inkscape:groupmode="layer"
     id="layer1"
     transform="translate(0,-308.2677)">
    <path
       style="fill:none;stroke:#ffffff;stroke-width:2.10818839;stroke-linecap:butt;stroke-linejoin:miter;stroke-miterlimit:4;stroke-opacity:1;stroke-dasharray:none"
       d="m 403.55117,938.68134 c 0,-7.9263 0,-15.85262 0,-23.77894 0,-5.73973 0,-11.47948 0,-17.21922 0,-1.36661 0,-2.73321 0,-4.09982 0,-1.09329 -0.4628,-2.2078 0,-3.27985 0.16363,-0.37903 1.56754,-0.44498 1.7699,-0.81996 0.39405,-0.73024 0,-4.65086 0,-5.73974 0,-0.27333 0,-0.54665 0,-0.81997 0,-0.27333 -0.52767,-0.69773 0,-0.81996 1.05536,-0.24447 2.35987,0 3.53981,0 3.93384,0 8.62233,0.24931 12.38928,0 1.84689,-0.12224 3.45547,-0.72452 5.30969,-0.81996 3.51815,-0.18111 7.0796,0 10.61939,0 2.94983,0 5.89966,0 8.84949,0 12.3893,0 24.77859,0 37.16787,0 9.43945,0 18.87891,0 28.31837,0 4.71973,0 9.43946,0 14.15918,0 1.17993,0 2.38279,0.1072 3.5398,0 12.58077,-1.16569 -2.92135,-0.81997 12.38928,-0.81997 8.25953,0 16.51906,0 24.77859,0 2.94983,0 5.89966,0 8.84949,0 1.17993,0 2.38278,0.10721 3.53979,0 1.82941,-0.16951 3.46945,-0.67786 5.3097,-0.81996 2.9097,-0.22467 5.89966,0 8.84949,0 4.71974,0 9.43946,0 14.15919,0 10.02943,0 20.05884,0 30.08827,0 1.76989,0 3.53979,0 5.3097,0 0.58996,0 1.35273,-0.19327 1.7699,0 0.83433,0.38653 -0.37313,1.12133 0,1.63993 5.01384,4.64565 -0.65961,-1.22233 1.76989,3.27985 0.31996,0.59292 1.44994,1.04701 1.7699,1.63992 0.34806,0.645 0,4.06708 0,4.91979 0,0.27332 -0.14308,0.5548 0,0.81996 0.45248,0.83851 1.46319,1.60733 1.7699,2.45988 0.29097,0.80881 0,1.63993 0,2.4599 0,2.18656 0,4.37314 0,6.5597 0,4.64646 0,9.29292 0,13.93938 0,4.64645 0,9.29291 0,13.93937 0,1.09329 0,2.18657 0,3.27985 0,0.27332 0.58996,0.81998 0,0.81998 -0.58997,0 0.58996,-0.81998 0,-0.81998 -0.83434,0 -1.02364,0.64711 -1.7699,0.81998 -0.52768,0.12222 -1.17993,0 -1.7699,0 -0.58996,0 -1.17993,0 -1.76989,0 -2.94984,0 -5.89967,0 -8.8495,0 -5.30969,0 -10.61939,0 -15.92908,0 -1.76989,0 -3.53981,0 -5.3097,0 -1.17993,0 -2.38277,0.1072 -3.53979,0 -1.8294,-0.16952 -3.46945,-0.67789 -5.30969,-0.81998 -1.74583,-0.13479 -3.53981,0 -5.30971,0 -5.30968,0 -10.61938,0 -15.92908,0 -1.76989,0 -3.59265,0.19888 -5.3097,0 -0.80942,-0.0938 -0.97836,-0.69773 -1.7699,-0.81996 -1.11937,-0.17287 -2.35985,0 -3.53979,0 -1.17993,0 -2.35986,0 -3.53979,0 -3.5398,0 -7.0796,0 -10.61939,0 -7.0796,0 -14.15919,0 -21.23879,0 -1.35116,0 -9.50427,-0.1722 -10.61938,0 -1.25151,0.19327 -2.25999,0.67173 -3.5398,0.81996 -1.34595,0.15589 -7.36741,0 -8.8495,0 -7.66955,0 -15.33911,0 -23.00868,0 -1.29605,0 -8.86136,-0.16289 -10.61937,0 -1.82942,0.16951 -3.48029,0.65046 -5.30971,0.81998 -1.15701,0.1072 -2.35985,0 -3.53979,0 -3.5398,0 -7.07959,0 -10.61939,0 -2.35986,0 -4.71973,0 -7.0796,0 -1.17993,0 -2.35986,0 -3.53979,0 -0.58996,0 -1.24221,-0.12224 -1.7699,0 -0.74625,0.17285 -1.02364,0.64709 -1.76989,0.81996 -0.52769,0.12223 -1.17993,0 -1.76991,0 -0.58996,0 -1.17992,0 -1.76989,0 -4.71973,0 -9.43945,0 -14.1592,0 -1.22215,0 -6.54147,-0.12465 -7.07958,0 -0.74625,0.17286 -1.02364,0.6471 -1.7699,0.81996 -0.70176,0.16256 -4.94786,-0.16763 -5.3097,0 -0.41716,0.19327 0.41718,0.6267 0,0.81997 -0.14129,0.0654 -2.83244,-0.0546 -3.53979,0 -2.96732,0.22911 -5.89966,0.54664 -8.8495,0.81996 z"
       id="path2987-25"
       inkscape:connector-curvature="0" />
    <path
       style="fill:none;stroke:#ffffff;stroke-width:2.10220218;stroke-linecap:butt;stroke-linejoin:miter;stroke-miterlimit:4;stroke-opacity:1;stroke-dasharray:none"
       d="m 402.73445,862.16016 c 0,-7.92711 0,-15.85424 0,-23.78134 0,-5.74032 0,-11.48064 0,-17.22097 0,-1.36674 0,-2.73349 0,-4.10023 0,-1.0934 -0.46013,-2.20802 0,-3.28019 0.16268,-0.37906 1.55849,-0.44502 1.75968,-0.82004 0.39178,-0.73031 0,-4.65133 0,-5.74032 0,-0.27335 0,-0.54671 0,-0.82005 0,-0.27336 -0.52462,-0.6978 0,-0.82004 1.04928,-0.2445 2.34626,0 3.51938,0 3.91114,0 8.57258,0.24933 12.31778,0 1.83623,-0.12226 3.43553,-0.7246 5.27905,-0.82005 3.49784,-0.18112 7.03874,0 10.5581,0 2.9328,0 5.8656,0 8.79841,0 12.31779,0 24.63558,0 36.95336,0 9.38496,0 18.76995,0 28.15493,0 4.69248,0 9.38497,0 14.07746,0 1.17312,0 2.36903,0.10721 3.51937,0 12.50815,-1.16581 -2.9045,-0.82005 12.31777,-0.82005 8.21186,0 16.42372,0 24.63558,0 2.93281,0 5.86561,0 8.79841,0 1.17313,0 2.36903,0.10722 3.51936,0 1.81886,-0.16952 3.44943,-0.67793 5.27906,-0.82005 2.89291,-0.22469 5.86561,0 8.79842,0 4.69249,0 9.38497,0 14.07747,0 9.97154,0 19.94307,0 29.91461,0 1.75968,0 3.51936,0 5.27906,0 0.58655,0 1.34491,-0.19329 1.75968,0 0.82951,0.38657 -0.37097,1.12145 0,1.6401 4.98491,4.64612 -0.6558,-1.22245 1.75968,3.28018 0.3181,0.59297 1.44157,1.04711 1.75968,1.64008 0.34605,0.64508 0,4.0675 0,4.92029 0,0.27334 -0.14226,0.55485 0,0.82004 0.44987,0.83859 1.45474,1.60749 1.75969,2.46013 0.28929,0.8089 0,1.6401 0,2.46015 0,2.18678 0,4.37358 0,6.56038 0,4.64692 0,9.29385 0,13.94078 0,4.64693 0,9.29386 0,13.94079 0,1.0934 0,2.18678 0,3.28018 0,0.27335 0.58655,0.82006 0,0.82006 -0.58657,0 0.58655,-0.82006 0,-0.82006 -0.82953,0 -1.01774,0.64716 -1.75969,0.82006 -0.52464,0.12222 -1.17312,0 -1.75968,0 -0.58656,0 -1.17313,0 -1.75968,0 -2.93281,0 -5.86562,0 -8.79842,0 -5.27905,0 -10.55811,0 -15.83715,0 -1.75968,0 -3.51938,0 -5.27906,0 -1.17312,0 -2.36901,0.10721 -3.51936,0 -1.81884,-0.16953 -3.44942,-0.67795 -5.27904,-0.82006 -1.73575,-0.13482 -3.51938,0 -5.27906,0 -5.27904,0 -10.5581,0 -15.83715,0 -1.75968,0 -3.57191,0.19889 -5.27906,0 -0.80474,-0.0938 -0.97271,-0.69781 -1.75968,-0.82004 -1.11291,-0.17289 -2.34623,0 -3.51936,0 -1.17312,0 -2.34624,0 -3.51936,0 -3.51937,0 -7.03874,0 -10.5581,0 -7.03874,0 -14.07747,0 -21.11621,0 -1.34336,0 -9.44941,-0.17223 -10.55809,0 -1.24429,0.19329 -2.24695,0.6718 -3.51937,0.82004 -1.33818,0.1559 -7.32488,0 -8.79842,0 -7.62529,0 -15.25058,0 -22.87589,0 -1.28857,0 -8.81021,-0.16291 -10.55808,0 -1.81886,0.16952 -3.46021,0.65053 -5.27906,0.82006 -1.15033,0.10721 -2.34624,0 -3.51936,0 -3.51937,0 -7.03874,0 -10.55811,0 -2.34624,0 -4.69248,0 -7.03874,0 -1.17312,0 -2.34623,0 -3.51936,0 -0.58655,0 -1.23504,-0.12226 -1.75968,0 -0.74195,0.17286 -1.01773,0.64715 -1.75968,0.82003 -0.52464,0.12225 -1.17312,0 -1.75969,0 -0.58655,0 -1.17311,0 -1.75968,0 -4.69249,0 -9.38497,0 -14.07747,0 -1.2151,0 -6.50372,-0.12467 -7.03873,0 -0.74194,0.17288 -1.01773,0.64716 -1.75968,0.82004 -0.69771,0.16258 -4.9193,-0.16764 -5.27906,0 -0.41475,0.19329 0.41477,0.62676 0,0.82005 -0.14047,0.0654 -2.81609,-0.0546 -3.51936,0 -2.95019,0.22914 -5.8656,0.5467 -8.79842,0.82004 z"
       id="path2987-25-4"
       inkscape:connector-curvature="0" />
    <text
       xml:space="preserve"
       style="font-size:22px;font-style:normal;font-weight:normal;line-height:125%;letter-spacing:0px;word-spacing:0px;fill:#ffffff;fill-opacity:1;stroke:none;font-family:Sans"
       x="472.91766"
       y="916.87427"
       id="text3137"
       sodipodi:linespacing="125%"><tspan
         sodipodi:role="line"
         id="tspan3139"
         x="472.91766"
         y="916.87427">Hardware</tspan></text>
    <text
       xml:space="preserve"
       style="font-size:22px;font-style:normal;font-weight:normal;line-height:125%;letter-spacing:0px;word-spacing:0px;fill:#ffffff;fill-opacity:1;stroke:none;font-family:Sans"
       x="478.63196"
       y="839.73145"
       id="text3141"
       sodipodi:linespacing="125%"><tspan
         sodipodi:role="line"
         id="tspan3143"
         x="478.63196"
         y="839.73145">Host OS</tspan></text>
    <path
       style="fill:none;stroke:#ffffff;stroke-width:1.38963377;stroke-linecap:butt;stroke-linejoin:miter;stroke-miterlimit:4;stroke-opacity:1;stroke-dasharray:none"
       d="m 406.79878,726.80215 c 0,-13.19244 0,-26.3849 0,-39.57734 0,-9.55315 0,-19.1063 0,-28.65946 0,-2.27456 0,-4.54912 0,-6.82368 0,-1.81965 -0.12081,-3.67462 0,-5.45894 0.0427,-0.63085 0.40921,-0.74061 0.46204,-1.36473 0.10287,-1.2154 0,-7.74083 0,-9.55315 0,-0.45492 0,-0.90984 0,-1.36474 0,-0.45492 -0.13775,-1.1613 0,-1.36473 0.27551,-0.4069 0.61605,0 0.92408,0 1.02693,0 2.25087,0.41494 3.23425,0 0.48213,-0.20346 0.90206,-1.20589 1.3861,-1.36474 0.91842,-0.30143 1.84815,0 2.77222,0 0.77006,0 1.54012,0 2.31018,0 3.23426,0 6.46851,0 9.70276,0 2.46419,0 4.92839,0 7.39258,0 1.2321,0 2.46419,0 3.69629,0 0.30802,0 0.62203,0.17843 0.92407,0 3.28424,-1.94015 -0.76263,-1.36474 3.23426,-1.36474 2.15616,0 4.31233,0 6.4685,0 0.77006,0 1.54013,0 2.31018,0 0.30802,0 0.62204,0.17843 0.92407,0 0.47758,-0.28213 0.90571,-1.12823 1.38612,-1.36474 0.75958,-0.37394 1.54011,0 2.31017,0 1.2321,0 2.4642,0 3.69629,0 2.61821,0 5.23641,0 7.85461,0 0.46204,0 0.92408,0 1.38612,0 0.15401,0 0.35313,-0.32168 0.46203,0 0.21781,0.64333 -0.0974,1.86633 0,2.72948 1.30888,7.73217 -0.17219,-2.03442 0.46204,5.45896 0.0835,0.98683 0.37851,1.74263 0.46203,2.72946 0.0909,1.07353 0,6.76919 0,8.18843 0,0.4549 -0.0374,0.9234 0,1.36473 0.11812,1.3956 0.38198,2.67521 0.46204,4.0942 0.076,1.34616 0,2.72948 0,4.0942 0,3.6393 0,7.27861 0,10.91789 0,7.73352 0,15.46702 0,23.20051 0,7.73352 0,15.46702 0,23.20052 0,1.81966 0,3.63929 0,5.45894 0,0.4549 0.15402,1.36475 0,1.36475 -0.15402,0 0.15402,-1.36475 0,-1.36475 -0.21781,0 -0.26722,1.07702 -0.46204,1.36475 -0.13775,0.20342 -0.30802,0 -0.46203,0 -0.15402,0 -0.30802,0 -0.46204,0 -0.77006,0 -1.54011,0 -2.31018,0 -1.38611,0 -2.77221,0 -4.15832,0 -0.46204,0 -0.92408,0 -1.38611,0 -0.30802,0 -0.62203,0.17842 -0.92407,0 -0.47757,-0.28214 -0.90571,-1.12826 -1.38611,-1.36475 -0.45576,-0.22435 -0.92408,0 -1.38611,0 -1.38611,0 -2.77222,0 -4.15832,0 -0.46204,0 -0.93788,0.33099 -1.38612,0 -0.2113,-0.1561 -0.2554,-1.16129 -0.46203,-1.36473 -0.29222,-0.28772 -0.61605,0 -0.92407,0 -0.30802,0 -0.61605,0 -0.92408,0 -0.92407,0 -1.84814,0 -2.77222,0 -1.84814,0 -3.69628,0 -5.54443,0 -0.35273,0 -2.48111,-0.28663 -2.77221,0 -0.32671,0.32167 -0.58998,1.11801 -0.92408,1.36473 -0.35136,0.25945 -1.92327,0 -2.31018,0 -2.00215,0 -4.00431,0 -6.00647,0 -0.33834,0 -2.31328,-0.27111 -2.77221,0 -0.47758,0.28212 -0.90854,1.08261 -1.38612,1.36475 -0.30204,0.17842 -0.61604,0 -0.92407,0 -0.92407,0 -1.84815,0 -2.77221,0 -0.61605,0 -1.2321,0 -1.84815,0 -0.30803,0 -0.61605,0 -0.92407,0 -0.15401,0 -0.32428,-0.20346 -0.46203,0 -0.19482,0.28769 -0.26723,1.07701 -0.46204,1.36472 -0.13775,0.20345 -0.30802,0 -0.46204,0 -0.15401,0 -0.30802,0 -0.46203,0 -1.2321,0 -2.46419,0 -3.6963,0 -0.31904,0 -1.70767,-0.20747 -1.84814,0 -0.19481,0.28771 -0.26722,1.07702 -0.46203,1.36474 -0.1832,0.27056 -1.29165,-0.279 -1.38611,0 -0.10891,0.32168 0.1089,1.04306 0,1.36473 -0.0369,0.1089 -0.73942,-0.0909 -0.92407,0 -0.77463,0.38135 -1.54013,0.90984 -2.31019,1.36473 z"
       id="path2987-25-7-6"
       inkscape:connector-curvature="0" />
    <path
       style="fill:none;stroke:#ffffff;stroke-width:1.65755689;stroke-linecap:butt;stroke-linejoin:miter;stroke-miterlimit:4;stroke-opacity:1;stroke-dasharray:none"
       d="m 402.71953,795.23963 c 0,-7.98672 0,-15.97343 0,-23.96014 0,-5.78347 0,-11.56695 0,-17.35044 0,-1.37703 0,-2.75403 0,-4.13105 0,-1.10162 -0.28393,-2.22463 0,-3.30485 0.1004,-0.38191 0.96169,-0.44837 1.08585,-0.82621 0.24175,-0.7358 0,-4.68629 0,-5.78348 0,-0.2754 0,-0.55081 0,-0.82621 0,-0.27541 -0.32373,-0.70305 0,-0.82621 0.64748,-0.24633 1.4478,0 2.1717,0 2.41346,0 5.28988,0.25121 7.60096,0 1.13308,-0.12317 2.11995,-0.73005 3.25755,-0.82621 2.15841,-0.18249 4.34338,0 6.51509,0 1.80974,0 3.61948,0 5.42923,0 7.60095,0 15.20189,0 22.80285,0 5.79117,0 11.58238,0 17.37357,0 2.89559,0 5.7912,0 8.68681,0 0.7239,0 1.46185,0.10802 2.17168,0 7.71843,-1.17457 -1.79227,-0.82622 7.60095,-0.82622 5.0673,0 10.13459,0 15.20191,0 1.80973,0 3.61948,0 5.42922,0 0.7239,0 1.46188,0.10803 2.1717,0 1.12238,-0.1708 2.12855,-0.68303 3.25755,-0.82621 1.78515,-0.22638 3.61949,0 5.42926,0 2.8956,0 5.79119,0 8.6868,0 6.15313,0 12.30629,0 18.45941,0 1.08587,0 2.17171,0 3.25757,0 0.36195,0 0.82991,-0.19473 1.08585,0 0.51186,0.38947 -0.22892,1.12988 0,1.65243 3.07605,4.68105 -0.40468,-1.23165 1.08583,3.30485 0.19632,0.59743 0.88956,1.055 1.08585,1.65242 0.21356,0.6499 0,4.09807 0,4.95728 0,0.2754 -0.0878,0.55903 0,0.82621 0.27762,0.8449 0.89769,1.61957 1.08587,2.47863 0.1786,0.81496 0,1.65242 0,2.47863 0,2.20323 0,4.40646 0,6.60969 0,4.68186 0,9.36372 0,14.0456 0,4.68185 0,9.36372 0,14.04559 0,1.10162 0,2.20323 0,3.30485 0,0.2754 0.36193,0.82622 0,0.82622 -0.36197,0 0.36193,-0.82622 0,-0.82622 -0.51189,0 -0.62802,0.65203 -1.08587,0.82622 -0.32373,0.12315 -0.72388,0 -1.08585,0 -0.36193,0 -0.7239,0 -1.08583,0 -1.80977,0 -3.61951,0 -5.42926,0 -3.25755,0 -6.51509,0 -9.77264,0 -1.08584,0 -2.1717,0 -3.25754,0 -0.72391,0 -1.46186,0.10802 -2.17171,0 -1.12234,-0.17081 -2.12852,-0.68305 -3.25755,-0.82622 -1.07107,-0.13582 -2.1717,0 -3.25755,0 -3.25754,0 -6.51509,0 -9.77264,0 -1.08583,0 -2.2041,0.20039 -3.25755,0 -0.49657,-0.0945 -0.60024,-0.70305 -1.08583,-0.82622 -0.68675,-0.17417 -1.44781,0 -2.17171,0 -0.7239,0 -1.4478,0 -2.17171,0 -2.17167,0 -4.34339,0 -6.51509,0 -4.34339,0 -8.68677,0 -13.03019,0 -0.82896,0 -5.83094,-0.17351 -6.51509,0 -0.76781,0.19475 -1.38651,0.67686 -2.17171,0.82622 -0.82575,0.15708 -4.51995,0 -5.42922,0 -4.70536,0 -9.41071,0 -14.11606,0 -0.79514,0 -5.43654,-0.16413 -6.51509,0 -1.12235,0.17079 -2.13518,0.65541 -3.25755,0.82622 -0.70983,0.10802 -1.4478,0 -2.17168,0 -2.17171,0 -4.34342,0 -6.51512,0 -1.44778,0 -2.89559,0 -4.34339,0 -0.7239,0 -1.4478,0 -2.1717,0 -0.36195,0 -0.76212,-0.12317 -1.08585,0 -0.45783,0.17417 -0.628,0.65202 -1.08583,0.82621 -0.32377,0.12316 -0.72391,0 -1.08587,0 -0.36194,0 -0.72388,0 -1.08585,0 -2.8956,0 -5.79119,0 -8.68679,0 -0.74981,0 -4.01326,-0.12561 -4.34339,0 -0.45783,0.17418 -0.62801,0.65202 -1.08584,0.82621 -0.43054,0.16379 -3.03556,-0.1689 -3.25757,0 -0.25592,0.19474 0.25594,0.63146 0,0.8262 -0.0867,0.0659 -1.73772,-0.055 -2.17169,0 -1.82047,0.23087 -3.6195,0.55081 -5.42925,0.82621 z"
       id="path2987-25-7-5"
       inkscape:connector-curvature="0" />
    <text
       xml:space="preserve"
       style="font-size:22px;font-style:normal;font-weight:normal;line-height:125%;letter-spacing:0px;word-spacing:0px;fill:#ffffff;fill-opacity:1;stroke:none;font-family:Sans"
       x="418.91766"
       y="686.87427"
       id="text3149"
       sodipodi:linespacing="125%"><tspan
         sodipodi:role="line"
         id="tspan3151"
         x="418.91766"
         y="686.87427">App</tspan></text>
    <text
       xml:space="preserve"
       style="font-size:22px;font-style:normal;font-weight:normal;line-height:125%;letter-spacing:0px;word-spacing:0px;fill:#ffffff;fill-opacity:1;stroke:none;font-family:Sans"
       x="433.2034"
       y="771.15997"
       id="text3183"
       sodipodi:linespacing="125%"><tspan
         sodipodi:role="line"
         x="433.2034"
         y="771.15997"
         id="tspan3187">bin / libs</tspan></text>
    <path
       style="fill:none;stroke:#ffffff;stroke-width:1.38963377;stroke-linecap:butt;stroke-linejoin:miter;stroke-miterlimit:4;stroke-opacity:1;stroke-dasharray:none"
       d="m 485.37021,724.30216 c 0,-13.19244 0,-26.3849 0,-39.57734 0,-9.55315 0,-19.1063 0,-28.65946 0,-2.27456 0,-4.54912 0,-6.82368 0,-1.81965 -0.12081,-3.67462 0,-5.45894 0.0427,-0.63085 0.40921,-0.74061 0.46204,-1.36473 0.10287,-1.2154 0,-7.74083 0,-9.55315 0,-0.45492 0,-0.90984 0,-1.36474 0,-0.45492 -0.13775,-1.1613 0,-1.36473 0.27551,-0.4069 0.61605,0 0.92408,0 1.02693,0 2.25087,0.41494 3.23425,0 0.48213,-0.20346 0.90206,-1.20589 1.3861,-1.36474 0.91842,-0.30143 1.84815,0 2.77222,0 0.77006,0 1.54012,0 2.31018,0 3.23426,0 6.46851,0 9.70276,0 2.46419,0 4.92839,0 7.39258,0 1.2321,0 2.46419,0 3.69629,0 0.30802,0 0.62203,0.17843 0.92407,0 3.28424,-1.94015 -0.76263,-1.36474 3.23426,-1.36474 2.15616,0 4.31233,0 6.4685,0 0.77006,0 1.54013,0 2.31018,0 0.30802,0 0.62204,0.17843 0.92407,0 0.47758,-0.28213 0.90571,-1.12823 1.38612,-1.36474 0.75958,-0.37394 1.54011,0 2.31017,0 1.2321,0 2.4642,0 3.69629,0 2.61821,0 5.23641,0 7.85461,0 0.46204,0 0.92408,0 1.38612,0 0.15401,0 0.35313,-0.32168 0.46203,0 0.21781,0.64333 -0.0974,1.86633 0,2.72948 1.30888,7.73216 -0.17219,-2.03443 0.46204,5.45895 0.0835,0.98683 0.37851,1.74263 0.46203,2.72946 0.0909,1.07353 0,6.76919 0,8.18843 0,0.4549 -0.0374,0.9234 0,1.36473 0.11812,1.3956 0.38198,2.67521 0.46204,4.0942 0.076,1.34616 0,2.72948 0,4.0942 0,3.6393 0,7.27861 0,10.9179 0,7.73351 0,15.46701 0,23.20051 0,7.73351 0,15.46701 0,23.20052 0,1.81965 0,3.63929 0,5.45894 0,0.4549 0.15402,1.36475 0,1.36475 -0.15402,0 0.15402,-1.36475 0,-1.36475 -0.21781,0 -0.26722,1.07702 -0.46204,1.36475 -0.13775,0.20342 -0.30802,0 -0.46203,0 -0.15402,0 -0.30802,0 -0.46204,0 -0.77006,0 -1.54011,0 -2.31018,0 -1.38611,0 -2.77221,0 -4.15832,0 -0.46204,0 -0.92408,0 -1.38611,0 -0.30802,0 -0.62203,0.17842 -0.92407,0 -0.47757,-0.28214 -0.90571,-1.12826 -1.38611,-1.36475 -0.45576,-0.22435 -0.92408,0 -1.38611,0 -1.38611,0 -2.77222,0 -4.15832,0 -0.46204,0 -0.93788,0.33099 -1.38612,0 -0.2113,-0.1561 -0.2554,-1.16129 -0.46203,-1.36473 -0.29222,-0.28772 -0.61605,0 -0.92407,0 -0.30802,0 -0.61605,0 -0.92408,0 -0.92407,0 -1.84814,0 -2.77222,0 -1.84814,0 -3.69628,0 -5.54443,0 -0.35273,0 -2.48111,-0.28663 -2.77221,0 -0.32671,0.32167 -0.58998,1.11801 -0.92408,1.36473 -0.35136,0.25945 -1.92327,0 -2.31018,0 -2.00215,0 -4.00431,0 -6.00647,0 -0.33834,0 -2.31328,-0.27111 -2.77221,0 -0.47758,0.28212 -0.90854,1.08261 -1.38612,1.36475 -0.30204,0.17842 -0.61604,0 -0.92407,0 -0.92407,0 -1.84815,0 -2.77221,0 -0.61605,0 -1.2321,0 -1.84815,0 -0.30803,0 -0.61605,0 -0.92407,0 -0.15401,0 -0.32428,-0.20346 -0.46203,0 -0.19482,0.28769 -0.26723,1.07701 -0.46204,1.36472 -0.13775,0.20345 -0.30802,0 -0.46204,0 -0.15401,0 -0.30802,0 -0.46203,0 -1.2321,0 -2.46419,0 -3.6963,0 -0.31904,0 -1.70767,-0.20747 -1.84814,0 -0.19481,0.28771 -0.26722,1.07702 -0.46203,1.36474 -0.1832,0.27056 -1.29165,-0.279 -1.38611,0 -0.10891,0.32168 0.1089,1.04306 0,1.36473 -0.0369,0.1089 -0.73942,-0.0909 -0.92407,0 -0.77463,0.38135 -1.54013,0.90983 -2.31019,1.36473 z"
       id="path2987-25-7-6-8"
       inkscape:connector-curvature="0" />
    <text
       xml:space="preserve"
       style="font-size:22px;font-style:normal;font-weight:normal;line-height:125%;letter-spacing:0px;word-spacing:0px;fill:#ffffff;fill-opacity:1;stroke:none;font-family:Sans"
       x="497.48911"
       y="684.37427"
       id="text3149-2"
       sodipodi:linespacing="125%"><tspan
         sodipodi:role="line"
         id="tspan3151-2"
         x="497.48911"
         y="684.37427">App</tspan></text>
    <path
       style="fill:none;stroke:#ffffff;stroke-width:2;stroke-linecap:butt;stroke-linejoin:miter;stroke-opacity:1;stroke-miterlimit:4;stroke-dasharray:none"
       d="m 398.57143,639.50504 c -5.2381,0 -10.47619,0 -15.71429,0 -0.47619,0 -0.97682,-0.15059 -1.42857,0 -10.34774,3.44924 2.2523,-0.41186 -4.28571,2.85714 -0.42592,0.21296 -1.00266,-0.21296 -1.42858,0 -0.60233,0.30117 -0.78969,1.21561 -1.42857,1.42857 -0.90351,0.30117 -1.95363,-0.30117 -2.85714,0 -0.63888,0.21296 -0.95238,0.95238 -1.42857,1.42857 -0.47619,0.47619 -1.05502,0.86824 -1.42857,1.42858 -4.45099,6.67648 2.79748,-1.71114 -4.28572,7.14285 -0.84138,1.05173 -2.11003,1.73648 -2.85714,2.85715 -0.26414,0.39621 0.15058,0.97681 0,1.42857 -0.33672,1.01015 -1.17032,1.82414 -1.42857,2.85714 -0.34648,1.38592 0,2.85714 0,4.28571 0,3.33334 0,6.66667 0,10 0,8.57143 0,17.14286 0,25.71429 0,4.7619 0,9.52381 0,14.28571 0,1.34117 0.27285,6.3243 0,7.14286 -0.21296,0.63888 -0.95238,0.95238 -1.42857,1.42857 -4.73798,4.73798 0.67343,-1.34687 -1.42857,2.85715 -0.30117,0.60233 -1.12741,0.82623 -1.42858,1.42857 -0.21295,0.42591 0.33672,1.09185 0,1.42857 -0.67343,0.67343 -2.0053,-0.42592 -2.85714,0 -0.60234,0.30117 -0.82623,1.1274 -1.42857,1.42857 -0.42592,0.21296 -0.97682,-0.15059 -1.42857,0 -1.01015,0.33672 -1.82414,1.17032 -2.85714,1.42857 -0.92395,0.23099 -1.95364,-0.30117 -2.85715,0 -0.63887,0.21296 -0.82623,1.1274 -1.42857,1.42857 -0.32018,0.1601 -5.37481,0 -5.71428,0 -0.47619,0 -0.97682,-0.15058 -1.42858,0 -4.92459,1.64153 -1.05823,1.42857 -4.28571,1.42857 -0.47619,0 -0.95238,0 -1.42857,0 -0.47619,0 -1.09186,0.33672 -1.42857,0 -0.33672,-0.33671 -0.47619,-1.42857 0,-1.42857 0.47619,0 -0.47619,1.42857 0,1.42857 0.46063,0 2.06338,-2.46026 2.85714,-2.85714 0.42592,-0.21296 0.97682,0.15059 1.42857,0 1.01015,-0.33672 1.84699,-1.09185 2.85714,-1.42857 0.55589,-0.1853 4.06402,0.2217 4.28572,0 0.33672,-0.33672 -0.33672,-1.09185 0,-1.42857 0.33672,-0.33672 0.95238,0 1.42857,0 0.47619,0 0.95238,0 1.42857,0 1.42857,0 2.8998,-0.34648 4.28572,0 1.033,0.25825 1.84699,1.09185 2.85714,1.42857 0.45175,0.15058 1.00265,-0.21296 1.42857,0 0.60234,0.30117 0.82623,1.1274 1.42857,1.42857 0.42592,0.21296 1.09186,-0.33672 1.42857,0 0.33672,0.33672 -0.33671,1.09185 0,1.42857 2.95577,2.95577 -0.11554,-4.5168 2.85715,1.42857 0.21295,0.42592 -0.21296,1.00266 0,1.42858 3.269,6.53801 -0.59211,-6.06203 2.85714,4.28571 0.15058,0.45175 -0.21296,1.00265 0,1.42857 0.30117,0.60234 1.1274,0.82623 1.42857,1.42857 0.25831,0.51662 0,6.14923 0,7.14286 0,0.99363 0.25831,6.62624 0,7.14286 -0.30117,0.60234 -1.1274,0.82623 -1.42857,1.42857 -0.21296,0.42592 0.21296,1.00265 0,1.42857 -0.30117,0.60234 -1.1274,0.82623 -1.42857,1.42857 -0.21296,0.42592 0.21296,1.00265 0,1.42857 -0.30117,0.60234 -1.1274,0.82624 -1.42857,1.42857 -0.57143,1.14286 0.57142,3.14286 0,4.28572 -0.30117,0.60234 -1.12741,0.82623 -1.42858,1.42857 -0.0374,0.0747 -0.0374,4.21098 0,4.28571 0.30117,0.60234 1.12741,0.82624 1.42858,1.42858 0.21295,0.42591 -0.33672,1.09185 0,1.42857 0.33671,0.33671 1.09185,-0.33672 1.42857,0 0.33671,0.33671 -0.33672,1.09185 0,1.42857 0.33671,0.33672 1.09185,-0.33672 1.42857,0 0.33672,0.33672 -0.33672,1.09185 0,1.42857 0.33672,0.33672 1.09185,-0.33672 1.42857,0 0.33672,0.33672 -0.33672,1.09185 0,1.42857 0.67344,0.67344 2.18371,-0.67343 2.85714,0 0.33672,0.33672 -0.33671,1.09185 0,1.42857 0.34376,0.34376 5.37053,-0.34376 5.71429,0 0.33672,0.33672 -0.33672,1.09186 0,1.42857 0.33672,0.33672 0.95238,0 1.42857,0 0.47619,0 0.95238,0 1.42857,0 2.85714,0 5.71429,0 8.57143,0 0.47619,0 1.09185,-0.33671 1.42857,0 0.33672,0.33672 0,0.95238 0,1.42858"
       id="path4284"
       inkscape:connector-curvature="0" />
    <path
       style="fill:none;stroke:#ffffff;stroke-width:1.658;stroke-linecap:butt;stroke-linejoin:miter;stroke-miterlimit:4;stroke-opacity:1;stroke-dasharray:6.632,1.658;stroke-dashoffset:0"
       d="m 408.80186,616.44182 c 0,-7.98672 0,-15.97343 0,-23.96014 0,-5.78347 0,-11.56695 0,-17.35044 0,-1.37703 0,-2.75403 0,-4.13105 0,-1.10162 -0.28393,-2.22463 0,-3.30485 0.1004,-0.38191 0.96169,-0.44837 1.08585,-0.82621 0.24175,-0.7358 0,-4.68629 0,-5.78348 0,-0.2754 0,-0.55081 0,-0.82621 0,-0.27541 -0.32373,-0.70305 0,-0.82621 0.64748,-0.24633 1.4478,0 2.1717,0 2.41346,0 5.28988,0.25121 7.60096,0 1.13308,-0.12317 2.11995,-0.73005 3.25755,-0.82621 2.15841,-0.18249 4.34338,0 6.51509,0 1.80974,0 3.61948,0 5.42923,0 7.60095,0 15.20189,0 22.80285,0 5.79117,0 11.58238,0 17.37357,0 2.89559,0 5.7912,0 8.68681,0 0.7239,0 1.46185,0.10802 2.17168,0 7.71843,-1.17457 -1.79227,-0.82622 7.60095,-0.82622 5.0673,0 10.13459,0 15.20191,0 1.80973,0 3.61948,0 5.42922,0 0.7239,0 1.46188,0.10803 2.1717,0 1.12238,-0.1708 2.12855,-0.68303 3.25755,-0.82621 1.78515,-0.22638 3.61949,0 5.42926,0 2.8956,0 5.79119,0 8.6868,0 6.15313,0 12.30629,0 18.45941,0 1.08587,0 2.17171,0 3.25757,0 0.36195,0 0.82991,-0.19473 1.08585,0 0.51186,0.38947 -0.22892,1.12988 0,1.65243 3.07605,4.68105 -0.40468,-1.23165 1.08583,3.30485 0.19632,0.59743 0.88956,1.055 1.08585,1.65242 0.21356,0.6499 0,4.09807 0,4.95728 0,0.2754 -0.0878,0.55903 0,0.82621 0.27762,0.8449 0.89769,1.61957 1.08587,2.47863 0.1786,0.81496 0,1.65242 0,2.47863 0,2.20323 0,4.40646 0,6.60969 0,4.68186 0,9.36372 0,14.0456 0,4.68185 0,9.36372 0,14.04559 0,1.10162 0,2.20323 0,3.30485 0,0.2754 0.36193,0.82622 0,0.82622 -0.36197,0 0.36193,-0.82622 0,-0.82622 -0.51189,0 -0.62802,0.65203 -1.08587,0.82622 -0.32373,0.12315 -0.72388,0 -1.08585,0 -0.36193,0 -0.7239,0 -1.08583,0 -1.80977,0 -3.61951,0 -5.42926,0 -3.25755,0 -6.51509,0 -9.77264,0 -1.08584,0 -2.1717,0 -3.25754,0 -0.72391,0 -1.46186,0.10802 -2.17171,0 -1.12234,-0.17081 -2.12852,-0.68305 -3.25755,-0.82622 -1.07107,-0.13582 -2.1717,0 -3.25755,0 -3.25754,0 -6.51509,0 -9.77264,0 -1.08583,0 -2.2041,0.20039 -3.25755,0 -0.49657,-0.0945 -0.60024,-0.70305 -1.08583,-0.82622 -0.68675,-0.17417 -1.44781,0 -2.17171,0 -0.7239,0 -1.4478,0 -2.17171,0 -2.17167,0 -4.34339,0 -6.51509,0 -4.34339,0 -8.68677,0 -13.03019,0 -0.82896,0 -5.83094,-0.17351 -6.51509,0 -0.76781,0.19475 -1.38651,0.67686 -2.17171,0.82622 -0.82575,0.15708 -4.51995,0 -5.42922,0 -4.70536,0 -9.41071,0 -14.11606,0 -0.79514,0 -5.43654,-0.16413 -6.51509,0 -1.12235,0.17079 -2.13518,0.65541 -3.25755,0.82622 -0.70983,0.10802 -1.4478,0 -2.17168,0 -2.17171,0 -4.34342,0 -6.51512,0 -1.44778,0 -2.89559,0 -4.34339,0 -0.7239,0 -1.4478,0 -2.1717,0 -0.36195,0 -0.76212,-0.12317 -1.08585,0 -0.45783,0.17417 -0.628,0.65202 -1.08583,0.82621 -0.32377,0.12316 -0.72391,0 -1.08587,0 -0.36194,0 -0.72388,0 -1.08585,0 -2.8956,0 -5.79119,0 -8.68679,0 -0.74981,0 -4.01326,-0.12561 -4.34339,0 -0.45783,0.17418 -0.62801,0.65202 -1.08584,0.82621 -0.43054,0.16379 -3.03556,-0.1689 -3.25757,0 -0.25592,0.19474 0.25594,0.63146 0,0.8262 -0.0867,0.0659 -1.73772,-0.055 -2.17169,0 -1.82047,0.23087 -3.6195,0.55081 -5.42925,0.82621 z"
       id="path2987-25-7-5-3"
       inkscape:connector-curvature="0" />
    <path
       style="fill:none;stroke:#ffffff;stroke-width:1.65799999;stroke-linecap:butt;stroke-linejoin:miter;stroke-miterlimit:4;stroke-opacity:1;stroke-dasharray:6.632, 1.658;stroke-dashoffset:0"
       d="m 408.80185,545.01324 c 0,-7.98672 0,-15.97343 0,-23.96014 0,-5.78347 0,-11.56695 0,-17.35044 0,-1.37703 0,-2.75403 0,-4.13105 0,-1.10162 -0.28393,-2.22463 0,-3.30485 0.1004,-0.38191 0.96169,-0.44837 1.08585,-0.82621 0.24175,-0.7358 0,-4.68629 0,-5.78348 0,-0.2754 0,-0.55081 0,-0.82621 0,-0.27541 -0.32373,-0.70305 0,-0.82621 0.64748,-0.24633 1.4478,0 2.1717,0 2.41346,0 5.28988,0.25121 7.60096,0 1.13308,-0.12317 2.11995,-0.73005 3.25755,-0.82621 2.15841,-0.18249 4.34338,0 6.51509,0 1.80974,0 3.61948,0 5.42923,0 7.60095,0 15.20189,0 22.80285,0 5.79117,0 11.58238,0 17.37357,0 2.89559,0 5.7912,0 8.68681,0 0.7239,0 1.46185,0.10802 2.17168,0 7.71843,-1.17457 -1.79227,-0.82622 7.60095,-0.82622 5.0673,0 10.13459,0 15.20191,0 1.80973,0 3.61948,0 5.42922,0 0.7239,0 1.46188,0.10803 2.1717,0 1.12238,-0.1708 2.12855,-0.68303 3.25755,-0.82621 1.78515,-0.22638 3.61949,0 5.42926,0 2.8956,0 5.79119,0 8.6868,0 6.15313,0 12.30629,0 18.45941,0 1.08587,0 2.17171,0 3.25757,0 0.36195,0 0.82991,-0.19473 1.08585,0 0.51186,0.38947 -0.22892,1.12988 0,1.65243 3.07605,4.68105 -0.40468,-1.23165 1.08583,3.30485 0.19632,0.59743 0.88956,1.055 1.08585,1.65242 0.21356,0.6499 0,4.09807 0,4.95728 0,0.2754 -0.0878,0.55903 0,0.82621 0.27762,0.8449 0.89769,1.61957 1.08587,2.47863 0.1786,0.81496 0,1.65242 0,2.47863 0,2.20323 0,4.40646 0,6.60969 0,4.68186 0,9.36372 0,14.0456 0,4.68185 0,9.36372 0,14.04559 0,1.10162 0,2.20323 0,3.30485 0,0.2754 0.36193,0.82622 0,0.82622 -0.36197,0 0.36193,-0.82622 0,-0.82622 -0.51189,0 -0.62802,0.65203 -1.08587,0.82622 -0.32373,0.12315 -0.72388,0 -1.08585,0 -0.36193,0 -0.7239,0 -1.08583,0 -1.80977,0 -3.61951,0 -5.42926,0 -3.25755,0 -6.51509,0 -9.77264,0 -1.08584,0 -2.1717,0 -3.25754,0 -0.72391,0 -1.46186,0.10802 -2.17171,0 -1.12234,-0.17081 -2.12852,-0.68305 -3.25755,-0.82622 -1.07107,-0.13582 -2.1717,0 -3.25755,0 -3.25754,0 -6.51509,0 -9.77264,0 -1.08583,0 -2.2041,0.20039 -3.25755,0 -0.49657,-0.0945 -0.60024,-0.70305 -1.08583,-0.82622 -0.68675,-0.17417 -1.44781,0 -2.17171,0 -0.7239,0 -1.4478,0 -2.17171,0 -2.17167,0 -4.34339,0 -6.51509,0 -4.34339,0 -8.68677,0 -13.03019,0 -0.82896,0 -5.83094,-0.17351 -6.51509,0 -0.76781,0.19475 -1.38651,0.67686 -2.17171,0.82622 -0.82575,0.15708 -4.51995,0 -5.42922,0 -4.70536,0 -9.41071,0 -14.11606,0 -0.79514,0 -5.43654,-0.16413 -6.51509,0 -1.12235,0.17079 -2.13518,0.65541 -3.25755,0.82622 -0.70983,0.10802 -1.4478,0 -2.17168,0 -2.17171,0 -4.34342,0 -6.51512,0 -1.44778,0 -2.89559,0 -4.34339,0 -0.7239,0 -1.4478,0 -2.1717,0 -0.36195,0 -0.76212,-0.12317 -1.08585,0 -0.45783,0.17417 -0.628,0.65202 -1.08583,0.82621 -0.32377,0.12316 -0.72391,0 -1.08587,0 -0.36194,0 -0.72388,0 -1.08585,0 -2.8956,0 -5.79119,0 -8.68679,0 -0.74981,0 -4.01326,-0.12561 -4.34339,0 -0.45783,0.17418 -0.62801,0.65202 -1.08584,0.82621 -0.43054,0.16379 -3.03556,-0.1689 -3.25757,0 -0.25592,0.19474 0.25594,0.63146 0,0.8262 -0.0867,0.0659 -1.73772,-0.055 -2.17169,0 -1.82047,0.23087 -3.6195,0.55081 -5.42925,0.82621 z"
       id="path2987-25-7-5-3-1"
       inkscape:connector-curvature="0" />
    <path
       style="fill:none;stroke:#ffffff;stroke-width:1.38963377;stroke-linecap:butt;stroke-linejoin:miter;stroke-miterlimit:4;stroke-opacity:1;stroke-dasharray:8.33780265,1.38963377;stroke-dashoffset:0"
       d="m 409.30968,477.29006 c 0,-13.19244 0,-26.3849 0,-39.57734 0,-9.55315 0,-19.1063 0,-28.65946 0,-2.27456 0,-4.54912 0,-6.82368 0,-1.81965 -0.12081,-3.67462 0,-5.45894 0.0427,-0.63085 0.40921,-0.74061 0.46204,-1.36473 0.10287,-1.2154 0,-7.74083 0,-9.55315 0,-0.45492 0,-0.90984 0,-1.36474 0,-0.45492 -0.13775,-1.1613 0,-1.36473 0.27551,-0.4069 0.61605,0 0.92408,0 1.02693,0 2.25087,0.41494 3.23425,0 0.48213,-0.20346 0.90206,-1.20589 1.3861,-1.36474 0.91842,-0.30143 1.84815,0 2.77222,0 0.77006,0 1.54012,0 2.31018,0 3.23426,0 6.46851,0 9.70276,0 2.46419,0 4.92839,0 7.39258,0 1.2321,0 2.46419,0 3.69629,0 0.30802,0 0.62203,0.17843 0.92407,0 3.28424,-1.94015 -0.76263,-1.36474 3.23426,-1.36474 2.15616,0 4.31233,0 6.4685,0 0.77006,0 1.54013,0 2.31018,0 0.30802,0 0.62204,0.17843 0.92407,0 0.47758,-0.28213 0.90571,-1.12823 1.38612,-1.36474 0.75958,-0.37394 1.54011,0 2.31017,0 1.2321,0 2.4642,0 3.69629,0 2.61821,0 5.23641,0 7.85461,0 0.46204,0 0.92408,0 1.38612,0 0.15401,0 0.35313,-0.32168 0.46203,0 0.21781,0.64333 -0.0974,1.86633 0,2.72948 1.30888,7.73216 -0.17219,-2.03443 0.46204,5.45895 0.0835,0.98683 0.37851,1.74263 0.46203,2.72946 0.0909,1.07353 0,6.76919 0,8.18843 0,0.4549 -0.0374,0.9234 0,1.36473 0.11812,1.3956 0.38198,2.67521 0.46204,4.0942 0.076,1.34616 0,2.72948 0,4.0942 0,3.6393 0,7.27861 0,10.9179 0,7.73351 0,15.46701 0,23.20051 0,7.73351 0,15.46701 0,23.20052 0,1.81965 0,3.63929 0,5.45894 0,0.4549 0.15402,1.36475 0,1.36475 -0.15402,0 0.15402,-1.36475 0,-1.36475 -0.21781,0 -0.26722,1.07702 -0.46204,1.36475 -0.13775,0.20342 -0.30802,0 -0.46203,0 -0.15402,0 -0.30802,0 -0.46204,0 -0.77006,0 -1.54011,0 -2.31018,0 -1.38611,0 -2.77221,0 -4.15832,0 -0.46204,0 -0.92408,0 -1.38611,0 -0.30802,0 -0.62203,0.17842 -0.92407,0 -0.47757,-0.28214 -0.90571,-1.12826 -1.38611,-1.36475 -0.45576,-0.22435 -0.92408,0 -1.38611,0 -1.38611,0 -2.77222,0 -4.15832,0 -0.46204,0 -0.93788,0.33099 -1.38612,0 -0.2113,-0.1561 -0.2554,-1.16129 -0.46203,-1.36473 -0.29222,-0.28772 -0.61605,0 -0.92407,0 -0.30802,0 -0.61605,0 -0.92408,0 -0.92407,0 -1.84814,0 -2.77222,0 -1.84814,0 -3.69628,0 -5.54443,0 -0.35273,0 -2.48111,-0.28663 -2.77221,0 -0.32671,0.32167 -0.58998,1.11801 -0.92408,1.36473 -0.35136,0.25945 -1.92327,0 -2.31018,0 -2.00215,0 -4.00431,0 -6.00647,0 -0.33834,0 -2.31328,-0.27111 -2.77221,0 -0.47758,0.28212 -0.90854,1.08261 -1.38612,1.36475 -0.30204,0.17842 -0.61604,0 -0.92407,0 -0.92407,0 -1.84815,0 -2.77221,0 -0.61605,0 -1.2321,0 -1.84815,0 -0.30803,0 -0.61605,0 -0.92407,0 -0.15401,0 -0.32428,-0.20346 -0.46203,0 -0.19482,0.28769 -0.26723,1.07701 -0.46204,1.36472 -0.13775,0.20345 -0.30802,0 -0.46204,0 -0.15401,0 -0.30802,0 -0.46203,0 -1.2321,0 -2.46419,0 -3.6963,0 -0.31904,0 -1.70767,-0.20747 -1.84814,0 -0.19481,0.28771 -0.26722,1.07702 -0.46203,1.36474 -0.1832,0.27056 -1.29165,-0.279 -1.38611,0 -0.10891,0.32168 0.1089,1.04306 0,1.36473 -0.0369,0.1089 -0.73942,-0.0909 -0.92407,0 -0.77463,0.38135 -1.54013,0.90983 -2.31019,1.36473 z"
       id="path2987-25-7-6-8-0"
       inkscape:connector-curvature="0" />
    <path
       style="fill:none;stroke:#ffffff;stroke-width:2;stroke-linecap:butt;stroke-linejoin:miter;stroke-miterlimit:4;stroke-opacity:1;stroke-dasharray:none"
       d="m 400.86781,388.82422 c -5.2381,0 -10.47619,0 -15.71429,0 -0.47619,0 -0.97682,-0.15059 -1.42857,0 -10.34774,3.44924 2.2523,-0.41186 -4.28571,2.85714 -0.42592,0.21296 -1.00266,-0.21296 -1.42858,0 -0.60233,0.30117 -0.78969,1.21561 -1.42857,1.42857 -0.90351,0.30117 -1.95363,-0.30117 -2.85714,0 -0.63888,0.21296 -0.95238,0.95238 -1.42857,1.42857 -0.47619,0.47619 -1.05502,0.86824 -1.42857,1.42858 -4.45099,6.67648 2.79748,-1.71114 -4.28572,7.14285 -0.84138,1.05173 -2.11003,1.73648 -2.85714,2.85715 -0.26414,0.39621 0.15058,0.97681 0,1.42857 -0.33672,1.01015 -1.17032,1.82414 -1.42857,2.85714 -0.34648,1.38592 0,2.85714 0,4.28571 0,3.33334 0,6.66667 0,10 0,8.57143 0,17.14286 0,25.71429 0,4.7619 0,9.52381 0,14.28571 0,1.34117 0.27285,6.3243 0,7.14286 -0.21296,0.63888 -0.95238,0.95238 -1.42857,1.42857 -4.73798,4.73798 0.67343,-1.34687 -1.42857,2.85715 -0.30117,0.60233 -1.12741,0.82623 -1.42858,1.42857 -0.21295,0.42591 0.33672,1.09185 0,1.42857 -0.67343,0.67343 -2.0053,-0.42592 -2.85714,0 -0.60234,0.30117 -0.82623,1.1274 -1.42857,1.42857 -0.42592,0.21296 -0.97682,-0.15059 -1.42857,0 -1.01015,0.33672 -1.82414,1.17032 -2.85714,1.42857 -0.92395,0.23099 -1.95364,-0.30117 -2.85715,0 -0.63887,0.21296 -0.82623,1.1274 -1.42857,1.42857 -0.32018,0.1601 -5.37481,0 -5.71428,0 -0.47619,0 -0.97682,-0.15058 -1.42858,0 -4.92459,1.64153 -1.05823,1.42857 -4.28571,1.42857 -0.47619,0 -0.95238,0 -1.42857,0 -0.47619,0 -1.09186,0.33672 -1.42857,0 -0.33672,-0.33671 -0.47619,-1.42857 0,-1.42857 0.47619,0 -0.47619,1.42857 0,1.42857 0.46063,0 2.06338,-2.46026 2.85714,-2.85714 0.42592,-0.21296 0.97682,0.15059 1.42857,0 1.01015,-0.33672 1.84699,-1.09185 2.85714,-1.42857 0.55589,-0.1853 4.06402,0.2217 4.28572,0 0.33672,-0.33672 -0.33672,-1.09185 0,-1.42857 0.33672,-0.33672 0.95238,0 1.42857,0 0.47619,0 0.95238,0 1.42857,0 1.42857,0 2.8998,-0.34648 4.28572,0 1.033,0.25825 1.84699,1.09185 2.85714,1.42857 0.45175,0.15058 1.00265,-0.21296 1.42857,0 0.60234,0.30117 0.82623,1.1274 1.42857,1.42857 0.42592,0.21296 1.09186,-0.33672 1.42857,0 0.33672,0.33672 -0.33671,1.09185 0,1.42857 2.95577,2.95577 -0.11554,-4.5168 2.85715,1.42857 0.21295,0.42592 -0.21296,1.00266 0,1.42858 3.269,6.53801 -0.59211,-6.06203 2.85714,4.28571 0.15058,0.45175 -0.21296,1.00265 0,1.42857 0.30117,0.60234 1.1274,0.82623 1.42857,1.42857 0.25831,0.51662 0,6.14923 0,7.14286 0,0.99363 0.25831,6.62624 0,7.14286 -0.30117,0.60234 -1.1274,0.82623 -1.42857,1.42857 -0.21296,0.42592 0.21296,1.00265 0,1.42857 -0.30117,0.60234 -1.1274,0.82623 -1.42857,1.42857 -0.21296,0.42592 0.21296,1.00265 0,1.42857 -0.30117,0.60234 -1.1274,0.82624 -1.42857,1.42857 -0.57143,1.14286 0.57142,3.14286 0,4.28572 -0.30117,0.60234 -1.12741,0.82623 -1.42858,1.42857 -0.0374,0.0747 -0.0374,4.21098 0,4.28571 0.30117,0.60234 1.12741,0.82624 1.42858,1.42858 0.21295,0.42591 -0.33672,1.09185 0,1.42857 0.33671,0.33671 1.09185,-0.33672 1.42857,0 0.33671,0.33671 -0.33672,1.09185 0,1.42857 0.33671,0.33672 1.09185,-0.33672 1.42857,0 0.33672,0.33672 -0.33672,1.09185 0,1.42857 0.33672,0.33672 1.09185,-0.33672 1.42857,0 0.33672,0.33672 -0.33672,1.09185 0,1.42857 0.67344,0.67344 2.18371,-0.67343 2.85714,0 0.33672,0.33672 -0.33671,1.09185 0,1.42857 0.34376,0.34376 5.37053,-0.34376 5.71429,0 0.33672,0.33672 -0.33672,1.09186 0,1.42857 0.33672,0.33672 0.95238,0 1.42857,0 0.47619,0 0.95238,0 1.42857,0 2.85714,0 5.71429,0 8.57143,0 0.47619,0 1.09185,-0.33671 1.42857,0 0.33672,0.33672 0,0.95238 0,1.42858"
       id="path4284-0"
       inkscape:connector-curvature="0" />
    <path
       style="fill:none;stroke:#ffffff;stroke-width:2;stroke-linecap:butt;stroke-linejoin:miter;stroke-opacity:1;stroke-miterlimit:4;stroke-dasharray:none"
       d="m 394.28571,252.66591 c -1.90476,-0.95238 -3.73701,-2.06623 -5.71428,-2.85714 -0.65251,-0.26101 -4.75225,0 -5.71429,0 -1.4856,0 -7.44769,-0.28094 -8.57143,0 -1.033,0.25825 -1.90476,0.95238 -2.85714,1.42857 -0.95238,0.47619 -1.97118,0.83793 -2.85714,1.42857 -0.56033,0.37356 -0.82623,1.1274 -1.42857,1.42857 -0.42592,0.21296 -1.00266,-0.21296 -1.42857,0 -0.60234,0.30117 -0.95239,0.95238 -1.42858,1.42857 -0.47619,0.47619 -1.1274,0.82624 -1.42857,1.42858 -0.21296,0.42591 0.33672,1.09185 0,1.42857 -0.33671,0.33671 -1.21561,-0.42592 -1.42857,0 -0.42592,0.85183 0.30117,1.95363 0,2.85714 -0.21296,0.63888 -1.1274,0.82623 -1.42857,1.42857 -0.21717,0.43434 0,4.72783 0,5.71429 0,3.80952 0,7.61904 0,11.42857 0,0.34646 0.0459,4.23977 0,4.28571 -0.75292,0.75293 -1.97118,0.83793 -2.85714,1.42857 -0.56033,0.37356 -0.7897,1.21562 -1.42857,1.42858 -0.90351,0.30116 -1.9332,-0.23099 -2.85715,0 -1.033,0.25825 -1.84699,1.09185 -2.85714,1.42857 -0.84304,0.28101 -6.34468,0 -7.14286,0 -0.47619,0 -0.95238,0 -1.42857,0 -0.47619,0 -1.09185,0.33671 -1.42857,0 -0.33672,-0.33672 0.33672,-1.09186 0,-1.42857 -0.33672,-0.33672 -1.42857,0.47619 -1.42857,0 0,-0.59795 1.73939,0.37258 2.85714,0 8.8673,-2.95577 -4.74789,0.11554 7.14286,-2.85715 1.17548,-0.29387 7.26082,0 8.57143,0 0.34646,0 4.23977,-0.0459 4.28571,0 0.75292,0.75293 0.95238,1.90476 1.42857,2.85715 0.47619,0.95238 1.09186,1.84699 1.42857,2.85714 0.30117,0.90351 0,1.90476 0,2.85714 0,0.95238 0.23099,1.9332 0,2.85714 -0.25825,1.03301 -0.83793,1.97118 -1.42857,2.85715 -0.37355,0.56033 -1.1274,0.82623 -1.42857,1.42857 -0.42592,0.85183 0.67344,2.18371 0,2.85714 -0.33672,0.33672 -1.09185,-0.33672 -1.42857,0 -0.33672,0.33672 0,0.95238 0,1.42857 0,2.85715 0,5.71429 0,8.57143 0,0.34647 -0.0459,4.23977 0,4.28572 0.33672,0.33671 0.95238,0 1.42857,0 2.85714,0 5.71429,0 8.57143,0 1.65953,0 5.84779,0.32376 7.14286,0 1.033,-0.25826 1.84699,-1.09186 2.85714,-1.42858 0.45175,-0.15058 0.97682,0.15059 1.42857,0 2.88692,-0.9623 3.90904,-2.85714 7.14286,-2.85714"
       id="path5127"
       inkscape:connector-curvature="0"
       transform="translate(0,308.2677)" />
  </g>
</svg>
